<svg width="2589" height="1127" viewBox="0 0 2589 1127" fill="none" xmlns="http://www.w3.org/2000/svg">
<path d="M2505.87 1120.88H82.5733C40.4106 1120.88 6.23071 1086.71 6.23071 1044.55V82.5602C6.23071 40.4002 40.4106 6.21353 82.5733 6.21353H2505.87C2548.03 6.21353 2582.2 40.4002 2582.2 82.5602V1044.55C2582.2 1086.71 2548.03 1120.88 2505.87 1120.88Z" fill="#DBDAD9"/>
<path d="M2505.87 1120.88H82.5733C40.4106 1120.88 6.23071 1086.71 6.23071 1044.55V82.5602C6.23071 40.4002 40.4106 6.21353 82.5733 6.21353H2505.87C2548.03 6.21353 2582.2 40.4002 2582.2 82.5602V1044.55C2582.2 1086.71 2548.03 1120.88 2505.87 1120.88Z" stroke="#808080" stroke-width="12" stroke-miterlimit="10"/>
<path d="M96.16 1113.69C73.56 1113.69 53.0281 1107.31 38.3427 1095.71C22.1374 1082.91 13.572 1064.69 13.572 1043.03V95.6268C13.572 50.8134 50.6187 14.3601 96.16 14.3601H2505.95C2509.64 14.3601 2512.61 17.3468 2512.61 21.0268C2512.61 24.7201 2509.64 27.6934 2505.95 27.6934H96.16C57.9707 27.6934 26.9054 58.1734 26.9054 95.6268V1043.03C26.9054 1060.47 33.7187 1075.07 46.6067 1085.25C58.9493 1095 76.5454 1100.36 96.16 1100.36C99.84 1100.36 102.827 1103.35 102.827 1107.03C102.827 1110.72 99.84 1113.69 96.16 1113.69Z" fill="#F4F1EF"/>
<path d="M2467.97 1038.89H123.16C110.32 1038.89 99.8666 1028.32 99.8266 1015.27L97.2799 219.12C97.2399 206.08 107.613 195.494 120.467 195.494H2465.28C2478.12 195.494 2488.57 206.08 2488.61 219.12L2491.16 1015.27C2491.2 1028.32 2480.81 1038.89 2467.97 1038.89Z" fill="#333333"/>
<path d="M2467.97 1038.89H123.16C110.32 1038.89 99.8666 1028.32 99.8266 1015.27L97.2799 219.12C97.2399 206.08 107.613 195.494 120.467 195.494H2465.28C2478.12 195.494 2488.57 206.08 2488.61 219.12L2491.16 1015.27C2491.2 1028.32 2480.81 1038.89 2467.97 1038.89Z" stroke="#666666" stroke-width="1.33333" stroke-miterlimit="10"/>
<path d="M531.44 921.267H366.44C357.64 921.267 350.493 914.133 350.493 905.32V443.4C350.493 434.6 357.64 427.454 366.44 427.454H531.44C540.24 427.454 547.387 434.6 547.387 443.4V905.32C547.387 914.133 540.24 921.267 531.44 921.267Z" fill="white"/>
<path d="M1527.73 933.267H857.56C834.92 933.267 816.56 914.907 816.56 892.267V710.694C816.56 688.04 834.92 669.68 857.56 669.68H1527.73C1550.37 669.68 1568.73 688.04 1568.73 710.694V892.267C1568.73 914.907 1550.37 933.267 1527.73 933.267Z" fill="white"/>
<path d="M1528.2 905.867H857.093C848.28 905.867 841.133 898.72 841.133 889.907V713.053C841.133 704.227 848.28 697.093 857.093 697.093H1528.2C1537.01 697.093 1544.16 704.227 1544.16 713.053V889.907C1544.16 898.72 1537.01 905.867 1528.2 905.867Z" stroke="#666666" stroke-width="10.6667" stroke-miterlimit="10"/>
<path d="M1531.11 460.467H860.933C838.28 460.467 819.933 442.107 819.933 419.467V361C819.933 338.36 838.28 320 860.933 320H1531.11C1553.75 320 1572.11 338.36 1572.11 361V419.467C1572.11 442.107 1553.75 460.467 1531.11 460.467Z" fill="#A8ACB0"/>
<path d="M1531.11 631.52H860.933C838.28 631.52 819.933 613.16 819.933 590.52V532.053C819.933 509.413 838.28 491.053 860.933 491.053H1531.11C1553.75 491.053 1572.11 509.413 1572.11 532.053V590.52C1572.11 613.16 1553.75 631.52 1531.11 631.52Z" fill="#A8ACB0"/>
<path d="M819.933 204.52V262.574C819.933 281.814 835.52 297.414 854.76 297.414H1537.27C1556.51 297.414 1572.11 281.814 1572.11 262.574V204.52H819.933Z" fill="#A8ACB0"/>
<path d="M1572.11 1003.65C1572.11 984.413 1556.51 968.827 1537.27 968.827H854.76C835.52 968.827 819.933 984.413 819.933 1003.65V1029.99H1572.11V1003.65Z" fill="#A8ACB0"/>
<path d="M1081.6 837.693H964.92C944.28 837.693 927.546 820.947 927.546 800.307C927.546 779.653 944.28 762.92 964.92 762.92H1081.6C1102.25 762.92 1118.99 779.653 1118.99 800.307C1118.99 820.947 1102.25 837.693 1081.6 837.693Z" fill="#333333"/>
<path d="M1423.71 837.693H1307.03C1286.39 837.693 1269.65 820.947 1269.65 800.307C1269.65 779.653 1286.39 762.92 1307.03 762.92H1423.71C1444.35 762.92 1461.09 779.653 1461.09 800.307C1461.09 820.947 1444.35 837.693 1423.71 837.693Z" fill="#333333"/>
<path d="M959.6 828.787C959.467 828.787 959.32 828.787 959.187 828.773C940.12 826.827 935.027 811.28 935 803.347C935 782.52 950.427 769.067 974.293 769.067H1086.63C1088.84 769.067 1090.63 770.853 1090.63 773.067C1090.63 775.28 1088.84 777.067 1086.63 777.067H974.293C959.16 777.067 943 783.96 943 803.333C943.027 804.92 943.693 819.147 960 820.813C962.2 821.04 963.8 823 963.573 825.2C963.36 827.253 961.627 828.787 959.6 828.787Z" fill="white"/>
<path d="M1305.57 828.787C1305.44 828.787 1305.31 828.787 1305.17 828.773C1286.09 826.827 1281.01 811.28 1280.99 803.347C1280.99 782.52 1296.4 769.067 1320.28 769.067H1432.61C1434.83 769.067 1436.61 770.853 1436.61 773.067C1436.61 775.28 1434.83 777.067 1432.61 777.067H1320.28C1305.15 777.067 1288.99 783.96 1288.99 803.333C1289 804.92 1289.67 819.147 1305.99 820.813C1308.17 821.04 1309.77 823 1309.56 825.2C1309.35 827.253 1307.6 828.787 1305.57 828.787Z" fill="white"/>
<path d="M1924.05 941.333H1703.85C1681.15 941.333 1662.72 922.92 1662.72 900.214V686.813C1662.72 664.093 1681.15 645.68 1703.85 645.68H1924.05C1946.77 645.68 1965.19 664.093 1965.19 686.813V900.214C1965.19 922.92 1946.77 941.333 1924.05 941.333Z" fill="white"/>
<path d="M1930.07 793.507C1930.07 857.64 1878.08 909.614 1813.96 909.614C1749.83 909.614 1697.84 857.64 1697.84 793.507C1697.84 729.387 1749.83 677.4 1813.96 677.4C1878.08 677.4 1930.07 729.387 1930.07 793.507Z" fill="#ED1C24"/>
<path d="M1930.07 793.507C1930.07 857.64 1878.08 909.614 1813.96 909.614C1749.83 909.614 1697.84 857.64 1697.84 793.507C1697.84 729.387 1749.83 677.4 1813.96 677.4C1878.08 677.4 1930.07 729.387 1930.07 793.507Z" stroke="#333333" stroke-width="13.3333" stroke-miterlimit="10"/>
<path d="M2260.49 941.907H2040.29C2017.59 941.907 1999.17 923.493 1999.17 900.773V687.373C1999.17 664.667 2017.59 646.24 2040.29 646.24H2260.49C2283.21 646.24 2301.63 664.667 2301.63 687.373V900.773C2301.63 923.493 2283.21 941.907 2260.49 941.907Z" fill="white"/>
<path d="M2266.51 794.08C2266.51 858.2 2214.52 910.187 2150.4 910.187C2086.27 910.187 2034.28 858.2 2034.28 794.08C2034.28 729.947 2086.27 677.96 2150.4 677.96C2214.52 677.96 2266.51 729.947 2266.51 794.08Z" fill="#ED1C24"/>
<path d="M2266.51 794.08C2266.51 858.2 2214.52 910.187 2150.4 910.187C2086.27 910.187 2034.28 858.2 2034.28 794.08C2034.28 729.947 2086.27 677.96 2150.4 677.96C2214.52 677.96 2266.51 729.947 2266.51 794.08Z" stroke="#333333" stroke-width="13.3333" stroke-miterlimit="10"/>
<path d="M202.04 754.16V594.574C202.04 584.267 210.387 575.92 220.693 575.92H677.187C687.493 575.92 695.84 584.267 695.84 594.574V754.16C695.84 764.454 687.493 772.813 677.187 772.813H220.693C210.387 772.813 202.04 764.454 202.04 754.16Z" fill="white"/>
<path d="M660.907 590.174H551.893C540.707 590.174 531.627 581.107 531.627 569.92V460.894C531.627 449.707 522.56 440.64 511.373 440.64H384.24C373.053 440.64 363.973 449.707 363.973 460.894V569.92C363.973 581.107 354.907 590.174 343.72 590.174H234.707C223.52 590.174 214.453 599.24 214.453 610.427V737.574C214.453 748.76 223.52 757.827 234.707 757.827H343.72C354.907 757.827 363.973 766.894 363.973 778.08V887.094C363.973 898.28 373.053 907.36 384.24 907.36H511.373C522.56 907.36 531.627 898.28 531.627 887.094V778.08C531.627 766.894 540.707 757.827 551.893 757.827H660.907C672.093 757.827 681.16 748.76 681.16 737.574V610.427C681.16 599.24 672.093 590.174 660.907 590.174Z" fill="#333333"/>
<path d="M229.827 749.374V625.28C229.827 614.36 238.613 605.52 249.453 605.547L355.12 605.774C365.973 605.8 374.76 596.974 374.76 586.054V479.64C374.76 468.72 383.547 459.894 394.387 459.907L517.627 460.187C521.213 460.187 524.56 461.187 527.453 462.88C525.12 454.574 517.56 448.467 508.573 448.454L385.346 448.174C374.506 448.16 365.707 456.987 365.707 467.907V574.32C365.707 585.24 356.92 594.067 346.08 594.054L240.413 593.814C229.573 593.787 220.773 602.627 220.773 613.547V737.64C220.773 744.947 224.733 751.334 230.587 754.76C230.107 753.054 229.827 751.24 229.827 749.374Z" fill="#A09F9F"/>
<path d="M1911.75 990.067V1006.64H1920.99C1924.56 1006.64 1927.25 1005.95 1929.07 1004.56C1930.87 1003.17 1931.77 1001.01 1931.77 998.067C1931.77 995.32 1930.85 993.293 1929 992C1927.16 990.707 1924.33 990.067 1920.56 990.067H1911.75ZM1911.75 985.694H1920.23C1923.87 985.694 1926.48 985.133 1928.08 983.987C1929.67 982.84 1930.47 980.92 1930.47 978.214C1930.47 975.734 1929.59 973.933 1927.8 972.84C1926.03 971.733 1923.2 971.187 1919.32 971.187H1911.75V985.694ZM1906.6 966.733H1919.11C1924.99 966.733 1929.24 967.614 1931.87 969.36C1934.49 971.12 1935.8 973.907 1935.8 977.694C1935.8 980.32 1935.07 982.493 1933.61 984.2C1932.15 985.907 1930 987.013 1927.2 987.52V987.827C1933.92 988.974 1937.29 992.507 1937.29 998.427C1937.29 1002.39 1935.95 1005.48 1933.28 1007.69C1930.6 1009.92 1926.85 1011.03 1922.05 1011.03H1906.6V966.733Z" fill="#FF0000"/>
<path d="M2272.65 992.307L2267.51 978.573C2266.84 976.84 2266.15 974.707 2265.44 972.187C2265 974.12 2264.36 976.253 2263.53 978.573L2258.32 992.307H2272.65ZM2279.77 1011.03L2274.25 996.947H2256.51L2251.05 1011.03H2245.84L2263.35 966.547H2267.68L2285.11 1011.03H2279.77Z" fill="#FF0000"/>
<path d="M1722.49 804.467C1722.49 749.84 1767.59 705.56 1823.2 705.56C1846.95 705.56 1871.44 716.307 1888.65 729.8C1870.2 709.254 1843.19 696.28 1813.09 696.28C1757.47 696.28 1712.37 740.56 1712.37 795.174C1712.37 826.48 1727.19 854.374 1750.31 872.507C1734.65 855.067 1722.49 829.52 1722.49 804.467Z" fill="white"/>
<path d="M2061.16 805.8C2061.16 751.174 2106.25 706.894 2161.87 706.894C2185.61 706.894 2210.11 717.64 2227.32 731.134C2208.87 710.587 2181.85 697.614 2151.76 697.614C2096.13 697.614 2051.04 741.894 2051.04 796.507C2051.04 827.814 2065.85 855.707 2088.97 873.84C2073.32 856.4 2061.16 830.854 2061.16 805.8Z" fill="white"/>
</svg>
