<?xml version="1.0" encoding="UTF-8" standalone="no"?>
<!-- Created with Inkscape (http://www.inkscape.org/) -->

<svg
   version="1.1"
   id="svg2"
   width="1360"
   height="1360"
   viewBox="0 0 1360 1360"
   sodipodi:docname="nes_cartridge.ai"
   xmlns:inkscape="http://www.inkscape.org/namespaces/inkscape"
   xmlns:sodipodi="http://sodipodi.sourceforge.net/DTD/sodipodi-0.dtd"
   xmlns="http://www.w3.org/2000/svg"
   xmlns:svg="http://www.w3.org/2000/svg">
  <defs
     id="defs6">
    <clipPath
       clipPathUnits="userSpaceOnUse"
       id="clipPath20">
      <path
         d="M 0,1020 H 1020 V 0 H 0 Z"
         id="path18" />
    </clipPath>
  </defs>
  <sodipodi:namedview
     id="namedview4"
     pagecolor="#ffffff"
     bordercolor="#000000"
     borderopacity="0.25"
     inkscape:showpageshadow="2"
     inkscape:pageopacity="0.0"
     inkscape:pagecheckerboard="0"
     inkscape:deskcolor="#d1d1d1" />
  <g
     id="g8"
     inkscape:groupmode="layer"
     inkscape:label="nes_cartridge"
     transform="matrix(1.3333333,0,0,-1.3333333,0,1360)">
    <g
       id="g10"
       transform="translate(832.8008,102.8379)">
      <path
         d="m 0,0 v 145.209 h 41.786 v 662.316 5.223 H 16.715 v -4.179 h -52.234 v 3.135 h -20.893 v -3.135 h -342.649 v 4.179 h -14.626 v -5.223 h -166.101 v 5.223 h -52.233 v -5.223 h -29.25 v 5.223 h -26.117 V 145.209 h 42.831 V 5.162 L 0,5.162 Z"
         style="fill:#b6b7b9;fill-opacity:1;fill-rule:nonzero;stroke:none"
         id="path12" />
    </g>
    <g
       id="g14">
      <g
         id="g16"
         clip-path="url(#clipPath20)">
        <g
           id="g22"
           transform="translate(772.2871,911)">
          <path
             d="m 0,0 v -526.355 c 0,-5.914 -4.794,-10.707 -10.708,-10.707 h -316.01 c -5.914,0 -10.708,4.793 -10.708,10.707 l 0,526.355 z"
             style="fill:#141414;fill-opacity:1;fill-rule:nonzero;stroke:none"
             id="path24" />
        </g>
        <g
           id="g26"
           transform="translate(480.3037,325.3604)">
          <path
             d="M 0,0 H 58.501 L 29.25,-51.188 Z"
             style="fill:#96979a;fill-opacity:1;fill-rule:nonzero;stroke:none"
             id="path28" />
        </g>
        <g
           id="g30"
           transform="translate(266.2783,774.5654)">
          <path
             d="m 0,0 c -1.8,0 -3.264,-1.465 -3.264,-3.265 v -6.006 c 0,-1.801 1.464,-3.265 3.264,-3.265 h 137.635 c 1.8,0 3.264,1.464 3.264,3.265 v 6.006 c 0,1.8 -1.464,3.265 -3.264,3.265 z M 137.635,-14.625 H 0 c -2.952,0 -5.354,2.401 -5.354,5.354 v 6.006 c 0,2.953 2.402,5.354 5.354,5.354 h 137.635 c 2.952,0 5.353,-2.401 5.353,-5.354 v -6.006 c 0,-2.953 -2.401,-5.354 -5.353,-5.354"
             style="fill:#6b6c70;fill-opacity:1;fill-rule:nonzero;stroke:none"
             id="path32" />
        </g>
        <g
           id="g34"
           transform="translate(266.2783,805.9053)">
          <path
             d="m 0,0 c -1.8,0 -3.264,-1.465 -3.264,-3.265 v -6.006 c 0,-1.801 1.464,-3.265 3.264,-3.265 h 137.635 c 1.8,0 3.264,1.464 3.264,3.265 v 6.006 c 0,1.8 -1.464,3.265 -3.264,3.265 z M 137.635,-14.625 H 0 c -2.952,0 -5.354,2.401 -5.354,5.354 v 6.006 c 0,2.953 2.402,5.354 5.354,5.354 h 137.635 c 2.952,0 5.353,-2.401 5.353,-5.354 v -6.006 c 0,-2.953 -2.401,-5.354 -5.353,-5.354"
             style="fill:#6b6c70;fill-opacity:1;fill-rule:nonzero;stroke:none"
             id="path36" />
        </g>
        <g
           id="g38"
           transform="translate(266.2783,743.2251)">
          <path
             d="m 0,0 c -1.8,0 -3.264,-1.464 -3.264,-3.264 v -6.007 c 0,-1.8 1.464,-3.265 3.264,-3.265 h 137.635 c 1.8,0 3.264,1.465 3.264,3.265 v 6.007 c 0,1.8 -1.464,3.264 -3.264,3.264 z M 137.635,-14.625 H 0 c -2.952,0 -5.354,2.401 -5.354,5.354 v 6.007 c 0,2.952 2.402,5.353 5.354,5.353 h 137.635 c 2.952,0 5.353,-2.401 5.353,-5.353 v -6.007 c 0,-2.953 -2.401,-5.354 -5.353,-5.354"
             style="fill:#6b6c70;fill-opacity:1;fill-rule:nonzero;stroke:none"
             id="path40" />
        </g>
        <g
           id="g42"
           transform="translate(266.2783,711.8853)">
          <path
             d="m 0,0 c -1.8,0 -3.264,-1.464 -3.264,-3.264 v -6.007 c 0,-1.8 1.464,-3.265 3.264,-3.265 h 137.635 c 1.8,0 3.264,1.465 3.264,3.265 v 6.007 c 0,1.8 -1.464,3.264 -3.264,3.264 z M 137.635,-14.625 H 0 c -2.952,0 -5.354,2.401 -5.354,5.354 v 6.007 c 0,2.952 2.402,5.353 5.354,5.353 h 137.635 c 2.952,0 5.353,-2.401 5.353,-5.353 v -6.007 c 0,-2.953 -2.401,-5.354 -5.353,-5.354"
             style="fill:#6b6c70;fill-opacity:1;fill-rule:nonzero;stroke:none"
             id="path44" />
        </g>
        <g
           id="g46"
           transform="translate(266.2783,680.5454)">
          <path
             d="m 0,0 c -1.8,0 -3.264,-1.464 -3.264,-3.265 v -6.006 c 0,-1.8 1.464,-3.265 3.264,-3.265 h 137.635 c 1.8,0 3.264,1.465 3.264,3.265 v 6.006 c 0,1.801 -1.464,3.265 -3.264,3.265 z M 137.635,-14.625 H 0 c -2.952,0 -5.354,2.401 -5.354,5.354 v 6.006 c 0,2.953 2.402,5.354 5.354,5.354 h 137.635 c 2.952,0 5.353,-2.401 5.353,-5.354 v -6.006 c 0,-2.953 -2.401,-5.354 -5.353,-5.354"
             style="fill:#6b6c70;fill-opacity:1;fill-rule:nonzero;stroke:none"
             id="path48" />
        </g>
        <g
           id="g50"
           transform="translate(266.2783,621)">
          <path
             d="m 0,0 c -1.8,0 -3.264,-1.465 -3.264,-3.265 v -6.006 c 0,-1.801 1.464,-3.265 3.264,-3.265 h 137.635 c 1.8,0 3.264,1.464 3.264,3.265 v 6.006 c 0,1.8 -1.464,3.265 -3.264,3.265 z M 137.635,-14.625 H 0 c -2.952,0 -5.354,2.401 -5.354,5.354 v 6.006 c 0,2.953 2.402,5.354 5.354,5.354 h 137.635 c 2.952,0 5.353,-2.401 5.353,-5.354 v -6.006 c 0,-2.953 -2.401,-5.354 -5.353,-5.354"
             style="fill:#6b6c70;fill-opacity:1;fill-rule:nonzero;stroke:none"
             id="path52" />
        </g>
        <g
           id="g54"
           transform="translate(266.2783,652.3398)">
          <path
             d="m 0,0 c -1.8,0 -3.264,-1.465 -3.264,-3.265 v -6.006 c 0,-1.801 1.464,-3.265 3.264,-3.265 h 137.635 c 1.8,0 3.264,1.464 3.264,3.265 v 6.006 c 0,1.8 -1.464,3.265 -3.264,3.265 z M 137.635,-14.625 H 0 c -2.952,0 -5.354,2.401 -5.354,5.354 v 6.006 c 0,2.953 2.402,5.354 5.354,5.354 h 137.635 c 2.952,0 5.353,-2.401 5.353,-5.354 v -6.006 c 0,-2.953 -2.401,-5.354 -5.353,-5.354"
             style="fill:#6b6c70;fill-opacity:1;fill-rule:nonzero;stroke:none"
             id="path56" />
        </g>
        <g
           id="g58"
           transform="translate(266.2783,589.6597)">
          <path
             d="m 0,0 c -1.8,0 -3.264,-1.464 -3.264,-3.264 v -6.007 c 0,-1.8 1.464,-3.265 3.264,-3.265 h 137.635 c 1.8,0 3.264,1.465 3.264,3.265 v 6.007 c 0,1.8 -1.464,3.264 -3.264,3.264 z M 137.635,-14.625 H 0 c -2.952,0 -5.354,2.401 -5.354,5.354 v 6.007 c 0,2.952 2.402,5.353 5.354,5.353 h 137.635 c 2.952,0 5.353,-2.401 5.353,-5.353 v -6.007 c 0,-2.953 -2.401,-5.354 -5.353,-5.354"
             style="fill:#6b6c70;fill-opacity:1;fill-rule:nonzero;stroke:none"
             id="path60" />
        </g>
        <g
           id="g62"
           transform="translate(266.2783,558.3198)">
          <path
             d="m 0,0 c -1.8,0 -3.264,-1.464 -3.264,-3.264 v -6.007 c 0,-1.8 1.464,-3.265 3.264,-3.265 h 137.635 c 1.8,0 3.264,1.465 3.264,3.265 v 6.007 c 0,1.8 -1.464,3.264 -3.264,3.264 z M 137.635,-14.625 H 0 c -2.952,0 -5.354,2.401 -5.354,5.354 v 6.007 c 0,2.952 2.402,5.353 5.354,5.353 h 137.635 c 2.952,0 5.353,-2.401 5.353,-5.353 v -6.007 c 0,-2.953 -2.401,-5.354 -5.353,-5.354"
             style="fill:#6b6c70;fill-opacity:1;fill-rule:nonzero;stroke:none"
             id="path64" />
        </g>
        <g
           id="g66"
           transform="translate(266.2783,526.98)">
          <path
             d="m 0,0 c -1.8,0 -3.264,-1.464 -3.264,-3.265 v -6.006 c 0,-1.8 1.464,-3.265 3.264,-3.265 h 137.635 c 1.8,0 3.264,1.465 3.264,3.265 v 6.006 c 0,1.801 -1.464,3.265 -3.264,3.265 z M 137.635,-14.625 H 0 c -2.952,0 -5.354,2.401 -5.354,5.354 v 6.006 c 0,2.953 2.402,5.354 5.354,5.354 h 137.635 c 2.952,0 5.353,-2.401 5.353,-5.354 v -6.006 c 0,-2.953 -2.401,-5.354 -5.353,-5.354"
             style="fill:#6b6c70;fill-opacity:1;fill-rule:nonzero;stroke:none"
             id="path68" />
        </g>
        <g
           id="g70"
           transform="translate(266.2783,466.3896)">
          <path
             d="m 0,0 c -1.8,0 -3.264,-1.465 -3.264,-3.265 v -6.006 c 0,-1.8 1.464,-3.265 3.264,-3.265 h 137.635 c 1.8,0 3.264,1.465 3.264,3.265 v 6.006 c 0,1.8 -1.464,3.265 -3.264,3.265 z M 137.635,-14.625 H 0 c -2.952,0 -5.354,2.401 -5.354,5.354 v 6.006 c 0,2.953 2.402,5.355 5.354,5.355 h 137.635 c 2.952,0 5.353,-2.402 5.353,-5.355 v -6.006 c 0,-2.953 -2.401,-5.354 -5.353,-5.354"
             style="fill:#6b6c70;fill-opacity:1;fill-rule:nonzero;stroke:none"
             id="path72" />
        </g>
        <g
           id="g74"
           transform="translate(266.2783,497.7295)">
          <path
             d="m 0,0 c -1.8,0 -3.264,-1.465 -3.264,-3.265 v -6.006 c 0,-1.8 1.464,-3.265 3.264,-3.265 h 137.635 c 1.8,0 3.264,1.465 3.264,3.265 v 6.006 c 0,1.8 -1.464,3.265 -3.264,3.265 z M 137.635,-14.625 H 0 c -2.952,0 -5.354,2.401 -5.354,5.354 v 6.006 c 0,2.953 2.402,5.355 5.354,5.355 h 137.635 c 2.952,0 5.353,-2.402 5.353,-5.355 v -6.006 c 0,-2.953 -2.401,-5.354 -5.353,-5.354"
             style="fill:#6b6c70;fill-opacity:1;fill-rule:nonzero;stroke:none"
             id="path76" />
        </g>
        <g
           id="g78"
           transform="translate(266.2783,435.0498)">
          <path
             d="m 0,0 c -1.8,0 -3.264,-1.465 -3.264,-3.265 v -6.006 c 0,-1.8 1.464,-3.265 3.264,-3.265 h 137.635 c 1.8,0 3.264,1.465 3.264,3.265 v 6.006 c 0,1.8 -1.464,3.265 -3.264,3.265 z M 137.635,-14.625 H 0 c -2.952,0 -5.354,2.401 -5.354,5.354 v 6.006 c 0,2.953 2.402,5.354 5.354,5.354 h 137.635 c 2.952,0 5.353,-2.401 5.353,-5.354 v -6.006 c 0,-2.953 -2.401,-5.354 -5.353,-5.354"
             style="fill:#6b6c70;fill-opacity:1;fill-rule:nonzero;stroke:none"
             id="path80" />
        </g>
        <g
           id="g82"
           transform="translate(266.2783,403.71)">
          <path
             d="m 0,0 c -1.8,0 -3.264,-1.465 -3.264,-3.265 v -6.006 c 0,-1.8 1.464,-3.265 3.264,-3.265 h 137.635 c 1.8,0 3.264,1.465 3.264,3.265 v 6.006 c 0,1.8 -1.464,3.265 -3.264,3.265 z M 137.635,-14.625 H 0 c -2.952,0 -5.354,2.401 -5.354,5.354 v 6.006 c 0,2.953 2.402,5.354 5.354,5.354 h 137.635 c 2.952,0 5.353,-2.401 5.353,-5.354 v -6.006 c 0,-2.953 -2.401,-5.354 -5.353,-5.354"
             style="fill:#6b6c70;fill-opacity:1;fill-rule:nonzero;stroke:none"
             id="path84" />
        </g>
        <g
           id="g86"
           transform="translate(266.2783,372.3701)">
          <path
             d="m 0,0 c -1.8,0 -3.264,-1.465 -3.264,-3.265 v -6.006 c 0,-1.8 1.464,-3.265 3.264,-3.265 h 137.635 c 1.8,0 3.264,1.465 3.264,3.265 v 6.006 c 0,1.8 -1.464,3.265 -3.264,3.265 z M 137.635,-14.625 H 0 c -2.952,0 -5.354,2.401 -5.354,5.354 v 6.006 c 0,2.953 2.402,5.354 5.354,5.354 h 137.635 c 2.952,0 5.353,-2.401 5.353,-5.354 v -6.006 c 0,-2.953 -2.401,-5.354 -5.353,-5.354"
             style="fill:#6b6c70;fill-opacity:1;fill-rule:nonzero;stroke:none"
             id="path88" />
        </g>
        <g
           id="g90"
           transform="translate(266.2783,312.8242)">
          <path
             d="m 0,0 c -1.8,0 -3.264,-1.465 -3.264,-3.265 v -6.006 c 0,-1.8 1.464,-3.265 3.264,-3.265 h 137.635 c 1.8,0 3.264,1.465 3.264,3.265 v 6.006 c 0,1.8 -1.464,3.265 -3.264,3.265 z M 137.635,-14.625 H 0 c -2.952,0 -5.354,2.401 -5.354,5.354 v 6.006 c 0,2.953 2.402,5.354 5.354,5.354 h 137.635 c 2.952,0 5.353,-2.401 5.353,-5.354 v -6.006 c 0,-2.953 -2.401,-5.354 -5.353,-5.354"
             style="fill:#6b6c70;fill-opacity:1;fill-rule:nonzero;stroke:none"
             id="path92" />
        </g>
        <g
           id="g94"
           transform="translate(266.2783,344.1641)">
          <path
             d="m 0,0 c -1.8,0 -3.264,-1.465 -3.264,-3.265 v -6.006 c 0,-1.8 1.464,-3.265 3.264,-3.265 h 137.635 c 1.8,0 3.264,1.465 3.264,3.265 v 6.006 c 0,1.8 -1.464,3.265 -3.264,3.265 z M 137.635,-14.625 H 0 c -2.952,0 -5.354,2.401 -5.354,5.354 v 6.006 c 0,2.953 2.402,5.355 5.354,5.355 h 137.635 c 2.952,0 5.353,-2.402 5.353,-5.355 v -6.006 c 0,-2.953 -2.401,-5.354 -5.353,-5.354"
             style="fill:#6b6c70;fill-opacity:1;fill-rule:nonzero;stroke:none"
             id="path96" />
        </g>
        <g
           id="g98"
           transform="translate(266.2783,281.4844)">
          <path
             d="m 0,0 c -1.8,0 -3.264,-1.465 -3.264,-3.265 v -6.006 c 0,-1.8 1.464,-3.265 3.264,-3.265 h 137.635 c 1.8,0 3.264,1.465 3.264,3.265 v 6.006 c 0,1.8 -1.464,3.265 -3.264,3.265 z M 137.635,-14.625 H 0 c -2.952,0 -5.354,2.401 -5.354,5.354 v 6.006 c 0,2.953 2.402,5.354 5.354,5.354 h 137.635 c 2.952,0 5.353,-2.401 5.353,-5.354 v -6.006 c 0,-2.953 -2.401,-5.354 -5.353,-5.354"
             style="fill:#6b6c70;fill-opacity:1;fill-rule:nonzero;stroke:none"
             id="path100" />
        </g>
        <g
           id="g102"
           transform="translate(266.2783,250.1445)">
          <path
             d="m 0,0 c -1.8,0 -3.264,-1.465 -3.264,-3.265 v -6.006 c 0,-1.8 1.464,-3.265 3.264,-3.265 h 137.635 c 1.8,0 3.264,1.465 3.264,3.265 v 6.006 c 0,1.8 -1.464,3.265 -3.264,3.265 z M 137.635,-14.625 H 0 c -2.952,0 -5.354,2.401 -5.354,5.354 v 6.006 c 0,2.953 2.402,5.354 5.354,5.354 h 137.635 c 2.952,0 5.353,-2.401 5.353,-5.354 v -6.006 c 0,-2.953 -2.401,-5.354 -5.353,-5.354"
             style="fill:#6b6c70;fill-opacity:1;fill-rule:nonzero;stroke:none"
             id="path104" />
        </g>
        <g
           id="g106"
           transform="translate(266.2783,218.8047)">
          <path
             d="m 0,0 c -1.8,0 -3.264,-1.465 -3.264,-3.265 v -6.006 c 0,-1.8 1.464,-3.265 3.264,-3.265 h 137.635 c 1.8,0 3.264,1.465 3.264,3.265 v 6.006 c 0,1.8 -1.464,3.265 -3.264,3.265 z M 137.635,-14.625 H 0 c -2.952,0 -5.354,2.401 -5.354,5.354 v 6.006 c 0,2.953 2.402,5.354 5.354,5.354 h 137.635 c 2.952,0 5.353,-2.401 5.353,-5.354 v -6.006 c 0,-2.953 -2.401,-5.354 -5.353,-5.354"
             style="fill:#6b6c70;fill-opacity:1;fill-rule:nonzero;stroke:none"
             id="path108" />
        </g>
        <path
           d="m 252.126,910.504 h 2.904 V 151 h -2.904 z"
           style="fill:#999999;fill-opacity:1;fill-rule:nonzero;stroke:none"
           id="path110" />
        <path
           d="m 412.802,910.504 h 2.904 V 157.942 h -2.904 z"
           style="fill:#999999;fill-opacity:1;fill-rule:nonzero;stroke:none"
           id="path112" />
        <g
           id="g114"
           transform="translate(252.0449,108.3311)">
          <path
             d="m 0,0 0.02,76.271 c 0,5.035 4.096,9.13 9.13,9.13 h 145.731 c 2.444,0 4.74,-0.952 6.465,-2.682 1.726,-1.73 2.672,-4.029 2.666,-6.471 V 0.247 h -3.352 l 0.218,76.009 c 0.004,1.604 -0.618,3.113 -1.751,4.25 -1.133,1.137 -2.641,1.762 -4.246,1.762 H 9.15 c -3.306,0 -5.997,-2.691 -5.997,-5.997 V 1.828 0.187 Z"
             style="fill:#76787a;fill-opacity:1;fill-rule:nonzero;stroke:none"
             id="path116" />
        </g>
        <g
           id="g118"
           transform="translate(253.854,910.0205)">
          <path
             d="m 0,0 -0.223,-86.67 c -0.01,-4.185 3.379,-7.583 7.564,-7.583 h 145.731 c 4.178,0 7.564,3.386 7.564,7.564 V 0 Z"
             style="fill:#76787a;fill-opacity:1;fill-rule:nonzero;stroke:none"
             id="path120" />
        </g>
        <g
           id="g122"
           transform="translate(266.2783,873.2241)">
          <path
             d="m 0,0 c -1.8,0 -3.264,-1.465 -3.264,-3.265 v -6.006 c 0,-1.801 1.464,-3.265 3.264,-3.265 h 137.635 c 1.8,0 3.264,1.464 3.264,3.265 v 6.006 c 0,1.8 -1.464,3.265 -3.264,3.265 z M 137.635,-14.625 H 0 c -2.952,0 -5.354,2.401 -5.354,5.354 v 6.006 c 0,2.953 2.402,5.354 5.354,5.354 h 137.635 c 2.952,0 5.353,-2.401 5.353,-5.354 v -6.006 c 0,-2.953 -2.401,-5.354 -5.353,-5.354"
             style="fill:#6b6c70;fill-opacity:1;fill-rule:nonzero;stroke:none"
             id="path124" />
        </g>
        <g
           id="g126"
           transform="translate(266.2783,904.564)">
          <path
             d="m 0,0 c -1.8,0 -3.264,-1.464 -3.264,-3.265 v -6.006 c 0,-1.801 1.464,-3.265 3.264,-3.265 h 137.635 c 1.8,0 3.264,1.464 3.264,3.265 v 6.006 c 0,1.801 -1.464,3.265 -3.264,3.265 z M 137.635,-14.625 H 0 c -2.952,0 -5.354,2.401 -5.354,5.354 v 6.006 c 0,2.953 2.402,5.354 5.354,5.354 h 137.635 c 2.952,0 5.353,-2.401 5.353,-5.354 v -6.006 c 0,-2.953 -2.401,-5.354 -5.353,-5.354"
             style="fill:#6b6c70;fill-opacity:1;fill-rule:nonzero;stroke:none"
             id="path128" />
        </g>
        <g
           id="g130"
           transform="translate(266.2783,841.8843)">
          <path
             d="m 0,0 c -1.8,0 -3.264,-1.465 -3.264,-3.265 v -6.006 c 0,-1.801 1.464,-3.265 3.264,-3.265 h 137.635 c 1.8,0 3.264,1.464 3.264,3.265 v 6.006 c 0,1.8 -1.464,3.265 -3.264,3.265 z M 137.635,-14.625 H 0 c -2.952,0 -5.354,2.401 -5.354,5.354 v 6.006 c 0,2.953 2.402,5.354 5.354,5.354 h 137.635 c 2.952,0 5.353,-2.401 5.353,-5.354 v -6.006 c 0,-2.953 -2.401,-5.354 -5.353,-5.354"
             style="fill:#6b6c70;fill-opacity:1;fill-rule:nonzero;stroke:none"
             id="path132" />
        </g>
        <g
           id="g134"
           transform="translate(730.9844,442.541)">
          <path
             d="m 0,0 h 10.805 l -3.636,11.428 9.453,3.635 -7.271,9.351 6.545,9.661 -10.389,4.26 3.947,9.766 -11.843,0.518 v 12.155 l -11.012,-3.324 -2.182,11.116 -10.181,-5.298 -3.635,10.389 -8.727,-6.857 -6.961,9.973 -9.246,-8.311 -8.207,8.934 -5.61,-10.077 -9.87,7.272 -2.596,-11.115 -10.701,5.401 -1.143,-11.323 -12.154,2.078 V 49.45 l -10.908,-1.662 3.947,-8.518 -9.038,-5.403 5.298,-9.453 -6.545,-9.662 8.623,-3.636 -1.87,-11.116 9.454,-0.623 -0.312,-9.869 11.115,1.35 2.39,-10.804 10.077,4.467 4.468,-10.493 9.453,6.441 5.922,-9.558 8.83,8 8.104,-8 7.584,9.662 9.141,-7.272 3.948,11.269 11.636,-4.828 1.662,11.012 11.428,-1.559 z"
             style="fill:#a38b46;fill-opacity:1;fill-rule:nonzero;stroke:none"
             id="path136" />
        </g>
        <g
           id="g138"
           transform="translate(727.1738,422.9346)">
          <path
             d="m 0,0 c -0.692,-0.693 -1.628,-1.132 -2.593,-1.131 -2.157,0.004 -3.721,1.765 -3.723,3.724 0.007,2.189 1.57,3.934 3.723,3.937 0.965,0 1.898,-0.436 2.589,-1.153 C 0.687,4.661 1.13,3.675 1.13,2.593 1.131,1.627 0.692,0.691 0,0 M -2.593,7.213 C -3.864,7.214 -4.977,6.688 -5.758,5.848 -6.541,5.007 -7,3.853 -7,2.593 c 0.005,-2.32 1.856,-4.405 4.407,-4.406 2.344,0.012 4.394,2.062 4.406,4.406 -0.005,2.541 -2.059,4.612 -4.406,4.62"
             style="fill:#a38b46;fill-opacity:1;fill-rule:nonzero;stroke:none"
             id="path140" />
        </g>
        <g
           id="g142"
           transform="translate(725.25,425.8613)">
          <path
             d="M 0,0 C -0.105,-0.126 -0.23,-0.203 -0.455,-0.206 H -1.611 V 1.25 h 1.156 C -0.23,1.246 -0.105,1.17 0,1.044 0.103,0.917 0.166,0.722 0.166,0.521 0.166,0.321 0.103,0.127 0,0 m 0.533,-0.427 c 0.218,0.275 0.316,0.614 0.316,0.948 0,0.335 -0.098,0.675 -0.316,0.95 -0.215,0.275 -0.571,0.466 -0.988,0.462 h -1.498 -0.342 v -3.979 h 0.684 v 1.156 h 0.958 l 0.757,-1.325 0.593,0.339 -0.626,1.095 c 0.187,0.082 0.346,0.205 0.462,0.354"
             style="fill:#a38b46;fill-opacity:1;fill-rule:nonzero;stroke:none"
             id="path144" />
        </g>
        <g
           id="g146"
           transform="translate(734.4473,466.2168)">
          <path
             d="m 0,0 c 0,-21.999 -25.302,-39.834 -56.515,-39.834 -31.212,0 -56.514,17.835 -56.514,39.834 0,22 25.302,39.834 56.514,39.834 C -25.302,39.834 0,22 0,0"
             style="fill:#ffffff;fill-opacity:1;fill-rule:nonzero;stroke:none"
             id="path148" />
        </g>
        <g
           id="g150"
           transform="translate(659.9609,489.0273)">
          <path
             d="m 0,0 c 0,-0.942 0.218,-1.657 0.654,-2.144 0.436,-0.487 0.988,-0.73 1.659,-0.73 0.669,0 1.219,0.241 1.65,0.724 0.43,0.483 0.645,1.208 0.645,2.173 C 4.608,0.978 4.399,1.69 3.98,2.159 3.562,2.628 3.005,2.863 2.313,2.863 1.618,2.863 1.061,2.627 0.637,2.151 0.213,1.676 0,0.958 0,0 m -1.731,-0.057 c 0,0.849 0.126,1.56 0.379,2.137 0.19,0.423 0.448,0.805 0.776,1.143 C -0.248,3.559 0.11,3.809 0.5,3.973 1.02,4.191 1.617,4.3 2.296,4.3 3.522,4.3 4.505,3.921 5.242,3.159 5.979,2.397 6.346,1.34 6.346,-0.018 6.346,-1.361 5.98,-2.413 5.25,-3.173 4.52,-3.933 3.542,-4.312 2.318,-4.312 c -1.238,0 -2.223,0.377 -2.954,1.134 -0.73,0.755 -1.095,1.795 -1.095,3.121"
             style="fill:#a38b46;fill-opacity:1;fill-rule:nonzero;stroke:none"
             id="path152" />
        </g>
        <g
           id="g154"
           transform="translate(667.2012,490.8906)">
          <path
             d="m 0,0 h 0.886 v 0.455 c 0,0.508 0.053,0.886 0.163,1.136 0.106,0.25 0.306,0.453 0.596,0.61 0.29,0.158 0.657,0.236 1.098,0.236 0.454,0 0.901,-0.068 1.336,-0.205 L 3.863,1.119 C 3.609,1.181 3.364,1.21 3.129,1.21 2.898,1.21 2.733,1.156 2.633,1.049 2.532,0.94 2.483,0.732 2.483,0.428 V 0 H 3.675 V -1.254 H 2.483 V -6.033 H 0.886 v 4.779 l -0.886,0 z"
             style="fill:#a38b46;fill-opacity:1;fill-rule:nonzero;stroke:none"
             id="path156" />
        </g>
        <g
           id="g158"
           transform="translate(671.3662,490.8906)">
          <path
             d="m 0,0 h 0.886 v 0.455 c 0,0.508 0.053,0.886 0.163,1.136 0.106,0.25 0.306,0.453 0.596,0.61 0.29,0.158 0.657,0.236 1.098,0.236 0.454,0 0.902,-0.068 1.336,-0.205 L 3.863,1.119 C 3.61,1.181 3.365,1.21 3.13,1.21 2.899,1.21 2.733,1.156 2.633,1.049 2.532,0.94 2.483,0.732 2.483,0.428 V 0 H 3.675 V -1.254 H 2.483 V -6.033 H 0.886 v 4.779 l -0.886,0 z"
             style="fill:#a38b46;fill-opacity:1;fill-rule:nonzero;stroke:none"
             id="path160" />
        </g>
        <path
           d="m 676.229,490.891 h 1.598 v -6.033 h -1.598 z m 0,2.296 h 1.598 v -1.478 h -1.598 z"
           style="fill:#a38b46;fill-opacity:1;fill-rule:nonzero;stroke:none"
           id="path162" />
        <g
           id="g164"
           transform="translate(685.0156,489.1074)">
          <path
             d="m 0,0 -1.574,-0.284 c -0.054,0.314 -0.174,0.55 -0.361,0.709 -0.188,0.159 -0.431,0.24 -0.73,0.24 -0.398,0 -0.714,-0.138 -0.951,-0.412 -0.238,-0.274 -0.356,-0.733 -0.356,-1.378 0,-0.716 0.12,-1.223 0.361,-1.518 0.24,-0.295 0.563,-0.441 0.968,-0.441 0.304,0 0.552,0.086 0.745,0.258 0.194,0.172 0.331,0.469 0.409,0.888 l 1.567,-0.267 c -0.162,-0.719 -0.474,-1.263 -0.936,-1.629 -0.463,-0.369 -1.081,-0.553 -1.859,-0.553 -0.882,0 -1.586,0.28 -2.11,0.835 -0.525,0.559 -0.785,1.328 -0.785,2.313 0,0.997 0.262,1.771 0.788,2.326 0.526,0.556 1.239,0.833 2.136,0.833 0.736,0 1.32,-0.157 1.753,-0.474 C -0.501,1.13 -0.189,0.647 0,0"
             style="fill:#a38b46;fill-opacity:1;fill-rule:nonzero;stroke:none"
             id="path166" />
        </g>
        <path
           d="m 686.515,490.891 h 1.597 v -6.033 h -1.597 z m 0,2.296 h 1.597 v -1.478 h -1.597 z"
           style="fill:#a38b46;fill-opacity:1;fill-rule:nonzero;stroke:none"
           id="path168" />
        <g
           id="g170"
           transform="translate(693.3691,487.7549)">
          <path
             d="m 0,0 c -0.204,-0.068 -0.529,-0.149 -0.973,-0.245 -0.442,-0.094 -0.731,-0.187 -0.868,-0.277 -0.209,-0.148 -0.313,-0.336 -0.313,-0.564 0,-0.223 0.083,-0.415 0.25,-0.578 0.168,-0.164 0.379,-0.245 0.636,-0.245 0.288,0 0.564,0.095 0.824,0.284 0.194,0.145 0.321,0.32 0.381,0.529 C -0.021,-0.959 0,-0.701 0,-0.318 Z m -2.136,1.296 -1.45,0.261 c 0.163,0.583 0.443,1.014 0.841,1.296 0.398,0.28 0.989,0.419 1.772,0.419 C -0.26,3.272 0.27,3.188 0.618,3.02 0.968,2.851 1.213,2.638 1.354,2.378 1.497,2.118 1.568,1.642 1.568,0.95 L 1.551,-0.914 c 0,-0.53 0.025,-0.922 0.076,-1.173 0.052,-0.252 0.147,-0.523 0.287,-0.81 H 0.335 c -0.043,0.105 -0.093,0.262 -0.153,0.47 -0.028,0.096 -0.045,0.157 -0.059,0.189 -0.272,-0.265 -0.562,-0.464 -0.873,-0.598 -0.312,-0.131 -0.643,-0.198 -0.995,-0.198 -0.621,0 -1.11,0.169 -1.469,0.507 -0.357,0.336 -0.536,0.762 -0.536,1.277 0,0.341 0.082,0.645 0.244,0.912 0.162,0.267 0.391,0.471 0.685,0.614 0.294,0.141 0.716,0.266 1.269,0.371 0.747,0.14 1.263,0.272 1.552,0.394 L 0,1.199 C 0,1.505 -0.076,1.724 -0.228,1.855 -0.38,1.985 -0.665,2.05 -1.086,2.05 -1.37,2.05 -1.591,1.995 -1.75,1.883 -1.909,1.771 -2.039,1.576 -2.136,1.296"
             style="fill:#a38b46;fill-opacity:1;fill-rule:nonzero;stroke:none"
             id="path172" />
        </g>
        <path
           d="m 696.801,493.187 h 1.598 v -8.329 h -1.598 z"
           style="fill:#a38b46;fill-opacity:1;fill-rule:nonzero;stroke:none"
           id="path174" />
        <g
           id="g176"
           transform="translate(642.4111,447.8135)">
          <path
             d="m 0,0 1.636,0.159 c 0.098,-0.551 0.299,-0.953 0.598,-1.211 0.303,-0.259 0.708,-0.386 1.22,-0.386 0.542,0 0.949,0.115 1.224,0.344 0.274,0.229 0.412,0.496 0.412,0.803 0,0.196 -0.059,0.365 -0.174,0.504 C 4.801,0.351 4.6,0.471 4.312,0.573 4.114,0.641 3.666,0.763 2.965,0.937 2.064,1.16 1.432,1.435 1.067,1.76 0.557,2.219 0.3,2.777 0.3,3.437 0.3,3.86 0.422,4.258 0.662,4.626 0.902,4.996 1.248,5.277 1.701,5.471 2.153,5.663 2.7,5.759 3.34,5.759 4.386,5.759 5.173,5.53 5.7,5.072 6.229,4.615 6.507,4.003 6.533,3.236 L 4.852,3.164 C 4.78,3.592 4.626,3.899 4.389,4.087 4.151,4.273 3.796,4.368 3.322,4.368 2.835,4.368 2.452,4.268 2.177,4.067 1.998,3.938 1.908,3.766 1.908,3.55 1.908,3.354 1.991,3.185 2.158,3.045 2.371,2.866 2.886,2.682 3.704,2.486 4.521,2.295 5.127,2.094 5.519,1.888 5.911,1.682 6.218,1.399 6.438,1.042 6.661,0.684 6.771,0.242 6.771,-0.286 6.771,-0.763 6.639,-1.209 6.374,-1.627 6.109,-2.042 5.734,-2.353 5.249,-2.555 4.764,-2.758 4.16,-2.858 3.436,-2.858 c -1.052,0 -1.86,0.243 -2.425,0.73 C 0.446,-1.642 0.11,-0.932 0,0"
             style="fill:#a38b46;fill-opacity:1;fill-rule:nonzero;stroke:none"
             id="path178" />
        </g>
        <g
           id="g180"
           transform="translate(653.6602,448.6367)">
          <path
             d="m 0,0 c -0.012,0.462 -0.132,0.812 -0.359,1.053 -0.227,0.24 -0.503,0.36 -0.828,0.36 -0.349,0 -0.636,-0.126 -0.864,-0.38 C -2.277,0.78 -2.39,0.435 -2.387,0 Z m -0.091,-1.614 1.59,-0.268 C 1.295,-2.465 0.972,-2.907 0.53,-3.213 0.089,-3.518 -0.463,-3.671 -1.125,-3.671 c -1.049,0 -1.826,0.343 -2.33,1.029 -0.398,0.549 -0.596,1.243 -0.596,2.079 0,1 0.26,1.784 0.783,2.35 0.523,0.567 1.185,0.849 1.984,0.849 0.897,0 1.605,-0.297 2.125,-0.89 0.519,-0.593 0.767,-1.5 0.745,-2.724 h -4 c 0.01,-0.473 0.14,-0.842 0.387,-1.105 0.244,-0.263 0.551,-0.395 0.918,-0.395 0.25,0 0.461,0.069 0.631,0.206 0.17,0.135 0.299,0.355 0.387,0.658"
             style="fill:#a38b46;fill-opacity:1;fill-rule:nonzero;stroke:none"
             id="path182" />
        </g>
        <g
           id="g184"
           transform="translate(659.3643,448)">
          <path
             d="m 0,0 c -0.205,-0.068 -0.529,-0.149 -0.973,-0.245 -0.443,-0.094 -0.732,-0.187 -0.868,-0.277 -0.21,-0.148 -0.313,-0.336 -0.313,-0.564 0,-0.223 0.083,-0.415 0.25,-0.578 0.167,-0.164 0.378,-0.245 0.635,-0.245 0.289,0 0.564,0.095 0.824,0.284 0.195,0.145 0.321,0.32 0.382,0.529 C -0.021,-0.959 0,-0.701 0,-0.318 Z m -2.137,1.295 -1.449,0.262 c 0.162,0.583 0.443,1.014 0.841,1.296 0.397,0.28 0.988,0.419 1.772,0.419 C -0.26,3.272 0.27,3.188 0.618,3.02 0.967,2.851 1.212,2.638 1.354,2.378 1.496,2.118 1.567,1.642 1.567,0.949 L 1.55,-0.914 c 0,-0.53 0.026,-0.922 0.076,-1.174 0.052,-0.251 0.147,-0.522 0.287,-0.809 H 0.334 c -0.042,0.105 -0.093,0.262 -0.152,0.47 -0.029,0.096 -0.046,0.157 -0.059,0.189 -0.272,-0.265 -0.563,-0.465 -0.873,-0.598 -0.312,-0.131 -0.644,-0.198 -0.995,-0.198 -0.622,0 -1.11,0.169 -1.47,0.507 -0.356,0.336 -0.535,0.762 -0.535,1.277 0,0.341 0.081,0.645 0.243,0.912 0.162,0.267 0.392,0.471 0.686,0.614 0.294,0.141 0.716,0.266 1.269,0.371 0.746,0.14 1.263,0.272 1.552,0.394 L 0,1.199 C 0,1.505 -0.077,1.724 -0.228,1.855 -0.38,1.985 -0.666,2.05 -1.086,2.05 -1.37,2.05 -1.591,1.995 -1.75,1.883 -1.909,1.771 -2.039,1.576 -2.137,1.295"
             style="fill:#a38b46;fill-opacity:1;fill-rule:nonzero;stroke:none"
             id="path186" />
        </g>
        <path
           d="m 661.992,453.432 h 1.597 v -8.329 h -1.597 z"
           style="fill:#a38b46;fill-opacity:1;fill-rule:nonzero;stroke:none"
           id="path188" />
        <g
           id="g190"
           transform="translate(668.7012,448.1182)">
          <path
             d="m 0,0 c 0,-0.597 0.141,-1.055 0.427,-1.373 0.282,-0.318 0.633,-0.478 1.05,-0.478 0.417,0 0.766,0.16 1.048,0.478 0.283,0.318 0.424,0.779 0.424,1.387 0,0.59 -0.141,1.045 -0.424,1.363 C 2.243,1.695 1.894,1.854 1.477,1.854 1.06,1.854 0.709,1.695 0.427,1.377 0.141,1.059 0,0.6 0,0 m -1.637,0.086 c 0,0.531 0.132,1.044 0.392,1.541 0.263,0.495 0.633,0.873 1.111,1.136 0.48,0.259 1.015,0.391 1.606,0.391 0.912,0 1.661,-0.297 2.243,-0.889 C 4.298,1.672 4.59,0.924 4.59,0.019 4.59,-0.894 4.296,-1.65 3.707,-2.251 3.118,-2.852 2.376,-3.152 1.481,-3.152 c -0.551,0 -1.079,0.125 -1.581,0.375 -0.501,0.25 -0.882,0.617 -1.145,1.099 -0.26,0.484 -0.392,1.072 -0.392,1.764"
             style="fill:#a38b46;fill-opacity:1;fill-rule:nonzero;stroke:none"
             id="path192" />
        </g>
        <g
           id="g194"
           transform="translate(673.3301,451.1357)">
          <path
             d="m 0,0 h 0.887 v 0.455 c 0,0.508 0.053,0.886 0.162,1.136 0.107,0.25 0.306,0.453 0.596,0.61 0.291,0.158 0.657,0.236 1.098,0.236 0.455,0 0.902,-0.068 1.336,-0.205 L 3.863,1.119 C 3.61,1.181 3.365,1.21 3.13,1.21 2.899,1.21 2.733,1.156 2.633,1.049 2.532,0.94 2.483,0.732 2.483,0.428 V 0 H 3.675 V -1.254 H 2.483 V -6.033 H 0.887 v 4.779 l -0.887,0 z"
             style="fill:#a38b46;fill-opacity:1;fill-rule:nonzero;stroke:none"
             id="path196" />
        </g>
        <g
           id="g198"
           transform="translate(685.4756,447.1084)">
          <path
             d="m 0,0 c 0.218,0.254 0.378,0.561 0.486,0.919 0.108,0.36 0.163,0.773 0.163,1.24 0,0.961 -0.212,1.681 -0.636,2.156 -0.425,0.476 -0.981,0.712 -1.665,0.712 -0.686,0 -1.243,-0.238 -1.667,-0.715 -0.428,-0.477 -0.64,-1.195 -0.64,-2.153 0,-0.973 0.212,-1.702 0.64,-2.184 0.424,-0.484 0.964,-0.724 1.615,-0.724 0.243,0 0.472,0.038 0.687,0.118 -0.34,0.224 -0.687,0.398 -1.039,0.523 l 0.472,0.959 C -1.031,0.663 -0.503,0.379 0,0 m 1.354,-0.949 c 0.412,-0.295 0.86,-0.53 1.345,-0.704 L 2.081,-2.84 c -0.255,0.074 -0.504,0.178 -0.745,0.312 -0.054,0.025 -0.427,0.272 -1.118,0.738 -0.546,-0.238 -1.152,-0.358 -1.814,-0.358 -1.281,0 -2.282,0.377 -3.008,1.13 -0.725,0.754 -1.087,1.814 -1.087,3.177 0,1.359 0.363,2.417 1.09,3.172 0.728,0.757 1.713,1.133 2.959,1.133 1.236,0 2.215,-0.376 2.937,-1.133 C 2.02,4.576 2.381,3.518 2.381,2.159 2.381,1.438 2.28,0.806 2.081,0.26 1.929,-0.155 1.687,-0.56 1.354,-0.949"
             style="fill:#a38b46;fill-opacity:1;fill-rule:nonzero;stroke:none"
             id="path200" />
        </g>
        <g
           id="g202"
           transform="translate(692.623,445.1025)">
          <path
             d="M 0,0 V 0.902 C -0.22,0.581 -0.509,0.328 -0.867,0.143 -1.225,-0.044 -1.603,-0.137 -2,-0.137 c -0.406,0 -0.77,0.09 -1.091,0.267 -0.321,0.179 -0.555,0.429 -0.7,0.75 -0.143,0.323 -0.214,0.767 -0.214,1.336 v 3.817 h 1.596 V 3.261 c 0,-0.849 0.029,-1.368 0.088,-1.56 C -2.264,1.51 -2.156,1.358 -2,1.247 c 0.155,-0.112 0.352,-0.168 0.591,-0.168 0.272,0 0.517,0.075 0.731,0.225 0.218,0.149 0.365,0.336 0.446,0.556 0.078,0.223 0.118,0.765 0.118,1.628 V 6.033 H 1.481 L 1.481,0 Z"
             style="fill:#a38b46;fill-opacity:1;fill-rule:nonzero;stroke:none"
             id="path204" />
        </g>
        <g
           id="g206"
           transform="translate(698.5762,448)">
          <path
             d="m 0,0 c -0.204,-0.068 -0.528,-0.149 -0.972,-0.245 -0.443,-0.094 -0.732,-0.187 -0.868,-0.277 -0.21,-0.148 -0.313,-0.336 -0.313,-0.564 0,-0.223 0.083,-0.415 0.25,-0.578 0.167,-0.164 0.378,-0.245 0.635,-0.245 0.289,0 0.564,0.095 0.824,0.284 0.195,0.145 0.321,0.32 0.382,0.529 C -0.021,-0.959 0,-0.701 0,-0.318 Z m -2.136,1.295 -1.449,0.262 c 0.162,0.583 0.442,1.014 0.841,1.296 0.397,0.28 0.988,0.419 1.772,0.419 0.713,0 1.242,-0.084 1.591,-0.252 C 0.968,2.851 1.213,2.638 1.354,2.378 1.497,2.118 1.568,1.642 1.568,0.949 L 1.551,-0.914 c 0,-0.53 0.025,-0.922 0.076,-1.174 0.052,-0.251 0.147,-0.522 0.287,-0.809 H 0.335 c -0.042,0.105 -0.093,0.262 -0.152,0.47 -0.029,0.096 -0.046,0.157 -0.059,0.189 -0.272,-0.265 -0.563,-0.465 -0.873,-0.598 -0.313,-0.131 -0.644,-0.198 -0.995,-0.198 -0.622,0 -1.11,0.169 -1.47,0.507 -0.356,0.336 -0.535,0.762 -0.535,1.277 0,0.341 0.081,0.645 0.243,0.912 0.162,0.267 0.392,0.471 0.686,0.614 0.293,0.141 0.716,0.266 1.268,0.371 0.747,0.14 1.264,0.272 1.552,0.394 L 0,1.199 C 0,1.505 -0.076,1.724 -0.227,1.855 -0.379,1.985 -0.665,2.05 -1.086,2.05 -1.369,2.05 -1.59,1.995 -1.749,1.883 -1.908,1.771 -2.038,1.576 -2.136,1.295"
             style="fill:#a38b46;fill-opacity:1;fill-rule:nonzero;stroke:none"
             id="path208" />
        </g>
        <path
           d="m 701.205,453.432 h 1.597 v -8.329 h -1.597 z"
           style="fill:#a38b46;fill-opacity:1;fill-rule:nonzero;stroke:none"
           id="path210" />
        <path
           d="m 703.925,451.136 h 1.598 v -6.033 h -1.598 z m 0,2.296 h 1.598 v -1.478 h -1.598 z"
           style="fill:#a38b46;fill-opacity:1;fill-rule:nonzero;stroke:none"
           id="path212" />
        <g
           id="g214"
           transform="translate(709.4131,451.1357)">
          <path
             d="m 0,0 v -1.272 h -1.091 v -2.432 c 0,-0.491 0.01,-0.779 0.031,-0.86 0.022,-0.082 0.069,-0.15 0.143,-0.203 0.073,-0.052 0.164,-0.078 0.27,-0.078 0.147,0 0.362,0.05 0.642,0.153 L 0.132,-5.931 C -0.24,-6.09 -0.66,-6.17 -1.131,-6.17 c -0.287,0 -0.547,0.049 -0.777,0.145 -0.231,0.097 -0.402,0.222 -0.509,0.375 -0.108,0.154 -0.183,0.36 -0.224,0.624 -0.036,0.184 -0.051,0.559 -0.051,1.123 v 2.631 H -3.427 V 0 h 0.735 v 1.2 l 1.601,0.932 0,-2.132 z"
             style="fill:#a38b46;fill-opacity:1;fill-rule:nonzero;stroke:none"
             id="path216" />
        </g>
        <g
           id="g218"
           transform="translate(709.2539,451.1357)">
          <path
             d="M 0,0 H 1.7 L 3.142,-4.283 4.551,0 H 6.204 L 4.073,-5.806 3.693,-6.857 C 3.554,-7.208 3.419,-7.478 3.292,-7.663 3.166,-7.85 3.02,-8.001 2.855,-8.116 2.69,-8.231 2.487,-8.32 2.247,-8.386 2.007,-8.45 1.735,-8.481 1.433,-8.481 c -0.308,0 -0.61,0.031 -0.905,0.095 l -0.141,1.25 c 0.25,-0.049 0.475,-0.072 0.676,-0.072 0.371,0 0.645,0.108 0.824,0.326 0.178,0.217 0.314,0.495 0.409,0.832 z"
             style="fill:#a38b46;fill-opacity:1;fill-rule:nonzero;stroke:none"
             id="path220" />
        </g>
        <g
           id="g222"
           transform="translate(677.9326,501.2715)">
          <path
             d="m 0,0 c -28.527,0 -51.736,-15.627 -51.736,-34.836 0,-19.21 23.209,-34.837 51.736,-34.837 28.526,0 51.735,15.627 51.735,34.837 C 51.735,-15.627 28.526,0 0,0 m 0,-70.919 c -29.216,0 -52.983,16.187 -52.983,36.083 0,19.896 23.767,36.083 52.983,36.083 29.215,0 52.982,-16.187 52.982,-36.083 0,-19.896 -23.767,-36.083 -52.982,-36.083"
             style="fill:#a38b46;fill-opacity:1;fill-rule:nonzero;stroke:none"
             id="path224" />
        </g>
        <path
           d="m 654.398,463.47 h 3.236 v 6.979 h -3.236 z"
           style="fill:#a38b46;fill-opacity:1;fill-rule:evenodd;stroke:none"
           id="path226" />
        <path
           d="m 657.635,473.551 h -3.236 v -2.158 h 3.236 z"
           style="fill:#a38b46;fill-opacity:1;fill-rule:evenodd;stroke:none"
           id="path228" />
        <g
           id="g230"
           transform="translate(649.3418,473.5508)">
          <path
             d="M 0,0 V -6.358 L -4.113,0 h -0.742 -2.496 v -10.081 h 3.238 v 6.356 L 0,-10.081 H 0.572 3.236 L 3.236,0 Z"
             style="fill:#a38b46;fill-opacity:1;fill-rule:evenodd;stroke:none"
             id="path232" />
        </g>
        <g
           id="g234"
           transform="translate(662.6592,469.9756)">
          <path
             d="m 0,0 v 0.474 h -3.237 v -6.98 H 0 v 4.518 c 0.066,0.437 0.202,0.506 0.437,0.674 1.989,1.112 2.361,-0.708 2.328,-1.55 -0.035,-0.843 0,-3.642 0,-3.642 h 3.236 v 3.642 C 6.001,1.821 1.146,0.743 0,0"
             style="fill:#a38b46;fill-opacity:1;fill-rule:evenodd;stroke:none"
             id="path236" />
        </g>
        <g
           id="g238"
           transform="translate(675.1602,471.4268)">
          <path
             d="M 0,0 H -1.746 V 1.415 H -4.983 V 0 h -1.814 v -1.012 h 1.814 v -6.945 h 3.237 v 6.945 H 0 Z"
             style="fill:#a38b46;fill-opacity:1;fill-rule:evenodd;stroke:none"
             id="path240" />
        </g>
        <g
           id="g242"
           transform="translate(708.8975,464.3623)">
          <path
             d="M 0,0 C 0.615,0 1.113,0.499 1.113,1.113 V 4.282 C 1.113,4.896 0.615,5.395 0,5.395 -0.614,5.395 -1.111,4.896 -1.111,4.282 V 1.113 C -1.111,0.499 -0.614,0 0,0 m 0,-1.093 c -2.515,0 -4.553,1.697 -4.553,3.791 0,2.094 2.038,3.79 4.553,3.79 2.515,0 4.554,-1.696 4.554,-3.79 C 4.554,0.604 2.515,-1.093 0,-1.093"
             style="fill:#a38b46;fill-opacity:1;fill-rule:evenodd;stroke:none"
             id="path244" />
        </g>
        <g
           id="g246"
           transform="translate(680.5352,468.0889)">
          <path
             d="m 0,0 v 0.556 c 0.031,0.755 -0.995,1.112 -1.609,1.112 -0.615,0 -1.326,-0.498 -1.326,-1.112 V 0 Z m -0.496,-1.147 h -2.439 v -1.466 c 0,-0.615 0.711,-1.114 1.326,-1.114 0.614,0 1.609,0.499 1.609,1.114 l -0.069,0.26 2.833,-0.002 C 1.88,-4.163 0.563,-4.819 -1.609,-4.819 c -2.515,0 -4.554,1.697 -4.554,3.791 0,2.093 2.039,3.79 4.554,3.79 2.815,0 4.498,-1.855 4.551,-3.909 z"
             style="fill:#a38b46;fill-opacity:1;fill-rule:evenodd;stroke:none"
             id="path248" />
        </g>
        <path
           d="m 684.472,463.47 h 3.236 v 6.979 h -3.236 z"
           style="fill:#a38b46;fill-opacity:1;fill-rule:evenodd;stroke:none"
           id="path250" />
        <g
           id="g252"
           transform="translate(687.708,467.9873)">
          <path
             d="M 0,0 C -0.182,-0.547 0,1.988 0,1.988 1.146,2.731 6.001,3.81 6.001,-0.876 V -4.518 H 2.766 c 0,0 -0.035,2.799 0,3.642 C 2.799,-0.034 2.428,1.786 0.438,0.674 0.203,0.506 0.068,0.437 0,0"
             style="fill:#a38b46;fill-opacity:1;fill-rule:evenodd;stroke:none"
             id="path254" />
        </g>
        <g
           id="g256"
           transform="translate(700.2676,465.4414)">
          <path
             d="m 0,0 c 0,-0.614 -0.498,-1.113 -1.113,-1.113 -0.616,0 -1.112,0.499 -1.112,1.113 v 3.17 c 0,0.614 0.496,1.111 1.112,1.111 C -0.498,4.281 0,3.784 0,3.17 Z M 3.253,8.109 H 0.017 V 5.217 c -0.425,0.109 -0.866,0.184 -1.332,0.184 -2.515,0 -4.554,-1.697 -4.554,-3.791 0,-2.092 2.039,-3.79 4.554,-3.79 0.502,0 0.975,0.083 1.426,0.208 h 3.142 z"
             style="fill:#a38b46;fill-opacity:1;fill-rule:evenodd;stroke:none"
             id="path258" />
        </g>
        <g
           id="g260"
           transform="translate(644.1504,477.0361)">
          <path
             d="m 0,0 c -4.478,0 -8.106,-3.628 -8.106,-8.105 0,-4.477 3.628,-8.105 8.106,-8.105 h 67.158 c 4.477,0 8.105,3.628 8.105,8.105 0,4.477 -3.628,8.105 -8.105,8.105 z m 0,-18.785 c -5.899,0 -10.682,4.782 -10.682,10.68 0,5.898 4.783,10.68 10.682,10.68 l 67.158,0.027 c 5.899,0 10.68,-4.784 10.68,-10.682 0,-5.898 -4.781,-10.68 -10.68,-10.68 z"
             style="fill:#a38b46;fill-opacity:1;fill-rule:evenodd;stroke:none"
             id="path262" />
        </g>
        <g
           id="g264"
           transform="translate(716.9541,469.9961)">
          <path
             d="m 0,0 c -0.281,-0.28 -0.66,-0.458 -1.051,-0.458 -0.874,0.002 -1.509,0.715 -1.51,1.509 0.004,0.887 0.637,1.595 1.51,1.595 0.391,0 0.769,-0.176 1.049,-0.466 C 0.278,1.89 0.458,1.489 0.458,1.051 0.458,0.66 0.28,0.28 0,0 m -1.051,2.924 c -0.515,0 -0.967,-0.213 -1.283,-0.554 -0.317,-0.341 -0.503,-0.808 -0.503,-1.319 0.002,-0.94 0.752,-1.785 1.786,-1.785 0.949,0.005 1.78,0.836 1.785,1.785 -0.002,1.03 -0.835,1.869 -1.785,1.873"
             style="fill:#a38b46;fill-opacity:1;fill-rule:nonzero;stroke:none"
             id="path266" />
        </g>
        <g
           id="g268"
           transform="translate(716.1738,471.1826)">
          <path
             d="m 0,0 c -0.043,-0.052 -0.094,-0.082 -0.185,-0.084 h -0.467 v 0.591 h 0.467 C -0.094,0.505 -0.043,0.474 0,0.423 0.042,0.371 0.067,0.292 0.067,0.211 0.067,0.13 0.042,0.051 0,0 M 0.217,-0.173 C 0.305,-0.062 0.344,0.076 0.345,0.211 0.344,0.347 0.305,0.484 0.217,0.596 0.129,0.707 -0.016,0.785 -0.185,0.783 H -0.791 -0.93 v -1.612 h 0.278 v 0.469 h 0.387 l 0.307,-0.537 0.241,0.136 -0.254,0.445 c 0.075,0.033 0.14,0.083 0.188,0.143"
             style="fill:#a38b46;fill-opacity:1;fill-rule:nonzero;stroke:none"
             id="path270" />
        </g>
      </g>
    </g>
  </g>
</svg>
