<svg width="712" height="312" viewBox="0 0 712 312" fill="none" xmlns="http://www.w3.org/2000/svg">
<path d="M151.742 0.187256C125.037 0.245083 75.8499 13.5867 75.8499 23.9334V43.6677V88.2224L235.774 45.3708L232.903 9.74V7.51148C232.903 1.05756 232.634 0.618895 224.418 0.618895C204.114 0.618895 151.742 0.187256 151.742 0.187256ZM561.131 0.187256C561.131 0.187256 508.759 0.618895 488.455 0.618895C480.24 0.618895 479.971 1.05756 479.971 7.51148V9.74L477.1 45.3708L637.024 88.2224V43.6677V23.9334C637.024 13.5867 587.837 0.245086 561.131 0.187256Z" fill="#A6A6AD"/>
<path d="M279.166 3.19116C276.927 3.19116 275.125 4.99369 275.125 7.2322V11.4001C275.125 13.6386 276.927 15.4392 279.166 15.4392H306.439C308.677 15.4392 310.48 13.6386 310.48 11.4001V7.2322C310.48 4.99369 308.677 3.19116 306.439 3.19116H279.166ZM405.435 3.19116C403.197 3.19116 401.394 4.99369 401.394 7.2322V11.4001C401.394 13.6386 403.197 15.4392 405.435 15.4392H432.708C434.947 15.4392 436.75 13.6386 436.75 11.4001V7.2322C436.75 4.99369 434.947 3.19116 432.708 3.19116H405.435Z" fill="#E6E7E9"/>
<path d="M149.866 8.16064C110.178 8.16071 72.1157 24.1147 44.0523 52.513C15.9889 80.9113 0.222971 119.428 0.2229 159.589C0.222971 199.75 15.9889 238.267 44.0523 266.665C72.1157 295.063 110.178 311.017 149.866 311.017C184.965 310.964 218.929 298.427 245.819 275.6H465.856C492.798 298.472 526.84 311.011 562.008 311.017C601.696 311.017 639.758 295.063 667.821 266.665C695.885 238.267 711.651 199.75 711.651 159.589C711.651 119.428 695.885 80.9113 667.821 52.513C639.758 24.1147 601.696 8.16072 562.008 8.16064H149.866Z" fill="#C9CACE"/>
<path d="M560.085 292.803C633.066 292.803 692.228 233.641 692.228 160.66C692.228 87.68 633.066 28.5176 560.085 28.5176C487.105 28.5176 427.942 87.68 427.942 160.66C427.942 233.641 487.105 292.803 560.085 292.803Z" fill="#81868A"/>
<path d="M648.795 187.88C663.663 176.157 666.212 154.601 654.489 139.733C642.766 124.866 621.21 122.317 606.342 134.04L538.819 187.281C523.951 199.004 521.402 220.56 533.125 235.428C544.848 250.296 566.404 252.845 581.271 241.122L648.795 187.88Z" fill="#BABBC0"/>
<path opacity="0.89" d="M628.092 134.205C620.993 134.205 614.184 137.025 609.164 142.045C604.144 147.064 601.323 153.873 601.323 160.972C601.323 164.488 602.015 167.969 603.36 171.217C604.706 174.465 606.677 177.416 609.163 179.901C611.649 182.387 614.6 184.359 617.848 185.704C621.096 187.05 624.577 187.742 628.092 187.742C631.608 187.742 635.089 187.05 638.337 185.704C641.585 184.359 644.536 182.387 647.021 179.901C649.507 177.416 651.479 174.465 652.824 171.217C654.17 167.969 654.862 164.488 654.862 160.972C654.861 153.873 652.041 147.064 647.021 142.045C642 137.025 635.192 134.205 628.092 134.205Z" fill="#BC0519"/>
<path opacity="0.89" d="M559.522 187.418C556.007 187.418 552.526 188.11 549.278 189.455C546.03 190.801 543.079 192.772 540.593 195.258C538.107 197.744 536.135 200.695 534.79 203.943C533.445 207.191 532.752 210.672 532.752 214.187C532.752 217.703 533.445 221.184 534.79 224.432C536.135 227.679 538.107 230.631 540.593 233.116C543.079 235.602 546.03 237.574 549.278 238.919C552.526 240.264 556.007 240.957 559.522 240.957C566.621 240.956 573.43 238.136 578.45 233.116C583.47 228.095 586.29 221.287 586.29 214.187C586.29 207.088 583.47 200.279 578.45 195.259C573.43 190.239 566.621 187.418 559.522 187.418Z" fill="#D6AB20"/>
<path d="M580.573 135.611C595.44 123.888 597.99 102.332 586.267 87.464C574.544 72.5963 552.988 70.0471 538.12 81.7701L470.596 135.012C455.729 146.735 453.179 168.291 464.902 183.159C476.625 198.026 498.181 200.575 513.049 188.852L580.573 135.611Z" fill="#BABBC0"/>
<path opacity="0.89" d="M559.87 81.9353C552.771 81.9357 545.962 84.756 540.943 89.7758C535.923 94.7956 533.102 101.604 533.102 108.703C533.102 115.802 535.922 122.611 540.942 127.631C545.962 132.652 552.77 135.472 559.87 135.472C563.385 135.472 566.866 134.78 570.114 133.435C573.362 132.09 576.313 130.118 578.799 127.632C581.285 125.146 583.256 122.195 584.602 118.947C585.947 115.699 586.639 112.218 586.639 108.703C586.639 101.603 583.818 94.7949 578.798 89.7751C573.778 84.7552 566.969 81.9352 559.87 81.9353Z" fill="#0047B3"/>
<path opacity="0.89" d="M491.299 135.148C487.784 135.148 484.303 135.841 481.055 137.186C477.807 138.531 474.856 140.503 472.37 142.989C469.884 145.474 467.913 148.426 466.567 151.673C465.222 154.921 464.53 158.402 464.53 161.918C464.53 165.433 465.222 168.914 466.567 172.162C467.913 175.41 469.884 178.361 472.37 180.847C474.856 183.333 477.807 185.304 481.055 186.65C484.303 187.995 487.784 188.687 491.299 188.687C494.815 188.687 498.296 187.995 501.544 186.65C504.791 185.304 507.743 183.333 510.228 180.847C512.714 178.361 514.686 175.41 516.031 172.162C517.377 168.914 518.069 165.433 518.069 161.918C518.069 158.402 517.377 154.921 516.031 151.673C514.686 148.426 512.714 145.474 510.228 142.989C507.743 140.503 504.791 138.531 501.544 137.186C498.296 135.84 494.815 135.148 491.299 135.148Z" fill="#00804D"/>
<path d="M305.248 161.314C302.872 161.237 300.454 161.959 298.416 163.531L268.618 186.527C263.96 190.121 263.104 196.764 266.698 201.422C270.292 206.079 276.935 206.936 281.592 203.342L311.393 180.345C316.05 176.751 316.905 170.108 313.311 165.451C311.289 162.831 308.304 161.413 305.248 161.314ZM383.106 161.314C380.73 161.237 378.312 161.959 376.274 163.531L346.473 186.527C341.816 190.121 340.961 196.764 344.555 201.422C348.149 206.079 354.792 206.936 359.45 203.342L389.248 180.345C393.906 176.751 394.763 170.108 391.168 165.451C389.147 162.831 386.161 161.413 383.106 161.314Z" fill="#4F5055"/>
<path d="M151.651 241.732C196.82 241.732 233.437 205.115 233.437 159.946C233.437 114.777 196.82 78.1606 151.651 78.1606C106.482 78.1606 69.8655 114.777 69.8655 159.946C69.8655 205.115 106.482 241.732 151.651 241.732Z" fill="#B1B2B7"/>
<path d="M137.575 100.426C132.923 100.426 129.178 104.17 129.178 108.822V140.265H97.7349C93.083 140.265 89.3384 144.01 89.3384 148.662V174.922C89.3384 179.574 93.083 183.32 97.7349 183.32H129.178V214.761C129.178 219.413 132.923 223.16 137.575 223.16H163.834C168.486 223.16 172.233 219.413 172.233 214.761V183.32H203.674C208.326 183.32 212.073 179.574 212.073 174.922V148.662C212.073 144.01 208.326 140.265 203.674 140.265H172.233V108.822C172.233 104.17 168.486 100.426 163.834 100.426H137.575Z" fill="#5A5B60"/>
</svg>
