<svg width="507" height="512" viewBox="0 0 507 512" fill="none" xmlns="http://www.w3.org/2000/svg">
<g clip-path="url(#clip0_2_138)">
<path d="M252.594 0.00439453C119.438 0.00439453 10.3584 103.612 0 235.271L135.854 291.954C147.716 283.743 161.804 279.352 176.232 279.37C177.58 279.37 178.912 279.407 180.225 279.48L240.648 191.098V189.86C240.648 136.678 283.525 93.4003 336.232 93.4003C388.937 93.4003 431.814 136.678 431.814 189.86C431.814 243.04 388.937 286.336 336.232 286.336C335.501 286.336 334.789 286.318 334.061 286.3L247.887 348.326C247.942 349.477 247.978 350.625 247.978 351.756C247.978 391.695 215.789 424.178 176.232 424.178C141.507 424.178 112.454 399.156 105.889 366.037L8.71769 325.492C38.8105 432.858 136.563 511.573 252.594 511.573C392.587 511.573 506.061 397.041 506.061 255.788C506.061 114.52 392.587 0.00439453 252.594 0.00439453ZM158.84 388.114L127.707 375.13C133.217 386.728 142.772 396.43 155.448 401.757C182.84 413.282 214.427 400.17 225.845 372.503C231.373 359.199 231.406 344.248 225.936 330.921C220.465 317.498 210.124 307.029 196.866 301.449C183.68 295.923 169.564 296.123 157.162 300.848L189.334 314.27C209.541 322.77 219.097 346.186 210.672 366.576C202.264 386.965 179.047 396.614 158.84 388.114ZM399.924 189.86C399.924 154.426 371.346 125.575 336.238 125.575C301.112 125.575 272.533 154.426 272.533 189.86C272.533 225.296 301.112 254.13 336.238 254.13C371.346 254.13 399.924 225.296 399.924 189.86ZM288.492 189.752C288.492 163.088 309.921 141.478 336.331 141.478C362.757 141.478 384.185 163.088 384.185 189.752C384.185 216.415 362.757 238.027 336.329 238.027C309.921 238.027 288.49 216.415 288.49 189.753L288.492 189.752Z" fill="#1A1918"/>
</g>
<defs>
<clipPath id="clip0_2_138">
<rect width="506.061" height="512" fill="white"/>
</clipPath>
</defs>
</svg>
