<?xml version="1.0" encoding="UTF-8" standalone="no"?>
<!-- Created with Inkscape (http://www.inkscape.org/) -->

<svg
   version="1.1"
   id="svg2"
   width="5120"
   height="2880"
   viewBox="0 0 5120 2880"
   sodipodi:docname="vecteezy_retro-classic-game-controller-with-colorful-background_7937288.eps"
   xmlns:inkscape="http://www.inkscape.org/namespaces/inkscape"
   xmlns:sodipodi="http://sodipodi.sourceforge.net/DTD/sodipodi-0.dtd"
   xmlns="http://www.w3.org/2000/svg"
   xmlns:svg="http://www.w3.org/2000/svg">
  <defs
     id="defs6" />
  <sodipodi:namedview
     id="namedview4"
     pagecolor="#ffffff"
     bordercolor="#000000"
     borderopacity="0.25"
     inkscape:showpageshadow="2"
     inkscape:pageopacity="0.0"
     inkscape:pagecheckerboard="0"
     inkscape:deskcolor="#d1d1d1" />
  <g
     id="g8"
     inkscape:groupmode="layer"
     inkscape:label="ink_ext_XXXXXX"
     transform="matrix(1.3333333,0,0,-1.3333333,0,2880)">
    <g
       id="g10"
       transform="scale(0.1)">
      <path
         d="M 38400,0 H 0 V 21600 H 38400 V 0"
         style="fill:#d32935;fill-opacity:1;fill-rule:nonzero;stroke:none"
         id="path12" />
      <path
         d="m 19175,14060.5 c -32.8,59.1 -799.8,1462.7 -333.1,2802.2 262.4,753.4 854.7,1325.6 1760.5,1700.8 549.2,227.5 934,533.7 1143.5,910.1 181.2,325.5 232.5,705.6 152.6,1129.7 -62.5,331.3 -201.5,675.5 -413.1,1023 -200.4,329 -462.3,650.3 -757.4,929.1 -592.7,560 -1256.9,900.6 -1776.8,911 l 12,599.9 c 348.8,-7 725.9,-113 1120.7,-315.1 360.2,-184.5 725.5,-447.2 1056.2,-759.7 710.4,-671.3 1201.7,-1501.2 1348,-2277 106.6,-565.7 33.3,-1081.3 -218,-1532.7 -276.9,-497.5 -760.8,-892 -1438.1,-1172.6 -740.9,-306.9 -1219.8,-759 -1423.5,-1343.9 -379.1,-1088.2 284.1,-2301 290.9,-2313.1 l -524.4,-291.7"
         style="fill:#b2222d;fill-opacity:1;fill-rule:nonzero;stroke:none"
         id="path14" />
      <path
         d="M 29213.1,5091.6 H 11038.4 c -316.2,0 -572.5,256.4 -572.5,572.6 v 7214.9 c 0,316.2 256.3,572.5 572.5,572.5 h 18174.7 c 316.2,0 572.6,-256.3 572.6,-572.5 V 5664.2 c 0,-316.2 -256.4,-572.6 -572.6,-572.6"
         style="fill:#b2222d;fill-opacity:1;fill-rule:nonzero;stroke:none"
         id="path16" />
      <path
         d="m 18176.6,14098.9 c -32.9,59.1 -799.8,1462.7 -333.2,2802.2 262.4,753.4 854.8,1325.7 1760.5,1700.8 549.3,227.5 934,533.7 1143.5,910.1 181.2,325.5 232.6,705.6 152.6,1129.7 -62.4,331.3 -201.4,675.5 -413.1,1023 -200.4,329 -462.3,650.3 -757.3,929.1 -592.7,560.1 -1257,900.6 -1776.9,911 l 12,599.9 c 348.9,-7 725.9,-113 1120.7,-315.1 360.3,-184.5 725.5,-447.2 1056.3,-759.7 710.4,-671.3 1201.7,-1501.2 1347.9,-2277 106.7,-565.7 33.3,-1081.3 -217.9,-1532.7 -277,-497.5 -760.8,-892 -1438.2,-1172.6 -740.8,-306.9 -1219.8,-759 -1423.5,-1343.8 -379.1,-1088.4 284.2,-2301.1 290.9,-2313.2 l -524.3,-291.7"
         style="fill:#333333;fill-opacity:1;fill-rule:nonzero;stroke:none"
         id="path18" />
      <path
         d="m 18176.6,14098.9 c -32.9,59.1 -799.8,1462.7 -333.2,2802.2 262.4,753.4 854.8,1325.7 1760.5,1700.8 549.3,227.5 934,533.7 1143.5,910.1 181.2,325.5 232.6,705.6 152.6,1129.7 -62.4,331.3 -201.4,675.5 -413.1,1023 -200.4,329 -462.3,650.3 -757.3,929.1 -592.7,560.1 -1257,900.6 -1776.9,911 l 12,599.9 c 348.9,-7 725.9,-113 1120.7,-315.1 360.3,-184.5 725.5,-447.2 1056.3,-759.7 710.4,-671.3 1201.7,-1501.2 1347.9,-2277 106.7,-565.7 33.3,-1081.3 -217.9,-1532.7 -277,-497.5 -760.8,-892 -1438.2,-1172.6 -740.8,-306.9 -1219.8,-759 -1423.5,-1343.8 -379.1,-1088.4 284.2,-2301.1 290.9,-2313.2 z"
         style="fill:none;stroke:#666666;stroke-width:10;stroke-linecap:butt;stroke-linejoin:miter;stroke-miterlimit:10;stroke-dasharray:none;stroke-opacity:1"
         id="path20" />
      <path
         d="m 18226,14051.9 c -33.2,59.7 -807.4,1476.6 -335.7,2830.8 265.9,763.2 864.9,1342.4 1780.2,1721.6 541.8,224.4 920.8,525.4 1126.3,894.7 184.1,330.8 237.1,685.4 161.9,1084.3 -65.3,346.2 -131.4,626.4 -389.9,1081.7 -163.9,288.9 -775.6,1077.2 -1524.9,1537.3 l 36.6,59.6 c 693.7,-425.9 1334.5,-1184.1 1549.2,-1562.3 263.8,-464.7 331.3,-750.4 397.8,-1103.3 78.3,-415.6 22.9,-785.7 -169.5,-1131.3 -213.4,-383.5 -604,-694.8 -1160.7,-925.4 -896.1,-371.2 -1481.8,-936.4 -1740.9,-1680 -461.5,-1324.8 298.2,-2715.1 330.8,-2773.7 l -61.2,-34"
         style="fill:#ffffff;fill-opacity:1;fill-rule:nonzero;stroke:none"
         id="path22" />
      <path
         d="M 28161.5,6120.9 H 9986.8 c -316.22,0 -572.57,256.3 -572.57,572.5 v 7214.9 c 0,316.2 256.35,572.6 572.57,572.6 h 18174.7 c 316.2,0 572.5,-256.4 572.5,-572.6 V 6693.4 c 0,-316.2 -256.3,-572.5 -572.5,-572.5"
         style="fill:#dbdad9;fill-opacity:1;fill-rule:nonzero;stroke:none"
         id="path24" />
      <path
         d="M 28161.5,6120.9 H 9986.8 c -316.22,0 -572.57,256.3 -572.57,572.5 v 7214.9 c 0,316.2 256.35,572.6 572.57,572.6 h 18174.7 c 316.2,0 572.5,-256.4 572.5,-572.6 V 6693.4 c 0,-316.2 -256.3,-572.5 -572.5,-572.5 z"
         style="fill:none;stroke:#808080;stroke-width:90;stroke-linecap:butt;stroke-linejoin:miter;stroke-miterlimit:10;stroke-dasharray:none;stroke-opacity:1"
         id="path26" />
      <path
         d="m 10088.7,6174.8 c -169.5,0 -323.49,47.9 -433.63,134.9 -121.54,96 -185.78,232.6 -185.78,395.1 v 7105.5 c 0,336.1 277.85,609.5 619.41,609.5 h 18073.4 c 27.7,0 50,-22.4 50,-50 0,-27.7 -22.3,-50 -50,-50 H 10088.7 c -286.42,0 -519.41,-228.6 -519.41,-509.5 V 6704.8 c 0,-130.8 51.1,-240.3 147.76,-316.7 92.57,-73.1 224.54,-113.3 371.65,-113.3 27.6,0 50,-22.4 50,-50 0,-27.7 -22.4,-50 -50,-50"
         style="fill:#f4f1ef;fill-opacity:1;fill-rule:nonzero;stroke:none"
         id="path28" />
      <path
         d="M 27877.3,6735.8 H 10291.2 c -96.3,0 -174.7,79.3 -175,177.2 l -19.1,5971.1 c -0.3,97.8 77.5,177.2 173.9,177.2 h 17586.1 c 96.3,0 174.7,-79.4 175,-177.2 l 19.1,-5971.1 c 0.3,-97.9 -77.6,-177.2 -173.9,-177.2"
         style="fill:#333333;fill-opacity:1;fill-rule:nonzero;stroke:none"
         id="path30" />
      <path
         d="M 27877.3,6735.8 H 10291.2 c -96.3,0 -174.7,79.3 -175,177.2 l -19.1,5971.1 c -0.3,97.8 77.5,177.2 173.9,177.2 h 17586.1 c 96.3,0 174.7,-79.4 175,-177.2 l 19.1,-5971.1 c 0.3,-97.9 -77.6,-177.2 -173.9,-177.2 z"
         style="fill:none;stroke:#666666;stroke-width:10;stroke-linecap:butt;stroke-linejoin:miter;stroke-miterlimit:10;stroke-dasharray:none;stroke-opacity:1"
         id="path32" />
      <path
         d="m 13353.3,7618 h -1237.5 c -66,0 -119.6,53.5 -119.6,119.6 V 11202 c 0,66 53.6,119.6 119.6,119.6 h 1237.5 c 66,0 119.6,-53.6 119.6,-119.6 V 7737.6 c 0,-66.1 -53.6,-119.6 -119.6,-119.6"
         style="fill:#ffffff;fill-opacity:1;fill-rule:nonzero;stroke:none"
         id="path34" />
      <path
         d="m 20825.5,7528 h -5026.3 c -169.8,0 -307.5,137.7 -307.5,307.5 v 1361.8 c 0,169.9 137.7,307.6 307.5,307.6 h 5026.3 c 169.8,0 307.5,-137.7 307.5,-307.6 V 7835.5 c 0,-169.8 -137.7,-307.5 -307.5,-307.5"
         style="fill:#ffffff;fill-opacity:1;fill-rule:nonzero;stroke:none"
         id="path36" />
      <path
         d="m 20829,7733.5 h -5033.3 c -66.1,0 -119.7,53.6 -119.7,119.7 v 1326.4 c 0,66.2 53.6,119.7 119.7,119.7 H 20829 c 66.1,0 119.7,-53.5 119.7,-119.7 V 7853.2 c 0,-66.1 -53.6,-119.7 -119.7,-119.7 z"
         style="fill:none;stroke:#666666;stroke-width:80;stroke-linecap:butt;stroke-linejoin:miter;stroke-miterlimit:10;stroke-dasharray:none;stroke-opacity:1"
         id="path38" />
      <path
         d="m 20850.8,11074 h -5026.3 c -169.9,0 -307.5,137.7 -307.5,307.5 v 438.5 c 0,169.8 137.6,307.5 307.5,307.5 h 5026.3 c 169.8,0 307.5,-137.7 307.5,-307.5 v -438.5 c 0,-169.8 -137.7,-307.5 -307.5,-307.5"
         style="fill:#a8acb0;fill-opacity:1;fill-rule:nonzero;stroke:none"
         id="path40" />
      <path
         d="m 20850.8,9791.1 h -5026.3 c -169.9,0 -307.5,137.7 -307.5,307.5 v 438.5 c 0,169.8 137.6,307.5 307.5,307.5 h 5026.3 c 169.8,0 307.5,-137.7 307.5,-307.5 v -438.5 c 0,-169.8 -137.7,-307.5 -307.5,-307.5"
         style="fill:#a8acb0;fill-opacity:1;fill-rule:nonzero;stroke:none"
         id="path42" />
      <path
         d="m 15517,12993.6 v -435.4 c 0,-144.3 116.9,-261.3 261.2,-261.3 H 20897 c 144.3,0 261.3,117 261.3,261.3 v 435.4 H 15517"
         style="fill:#a8acb0;fill-opacity:1;fill-rule:nonzero;stroke:none"
         id="path44" />
      <path
         d="m 21158.3,7000.1 c 0,144.3 -117,261.2 -261.3,261.2 h -5118.8 c -144.3,0 -261.2,-116.9 -261.2,-261.2 v -197.5 h 5641.3 v 197.5"
         style="fill:#a8acb0;fill-opacity:1;fill-rule:nonzero;stroke:none"
         id="path46" />
      <path
         d="m 17479.5,8244.8 h -875.1 c -154.8,0 -280.3,125.6 -280.3,280.4 v 0 c 0,154.9 125.5,280.4 280.3,280.4 h 875.1 c 154.9,0 280.4,-125.5 280.4,-280.4 v 0 c 0,-154.8 -125.5,-280.4 -280.4,-280.4"
         style="fill:#333333;fill-opacity:1;fill-rule:nonzero;stroke:none"
         id="path48" />
      <path
         d="m 20045.3,8244.8 h -875.1 c -154.8,0 -280.3,125.6 -280.3,280.4 v 0 c 0,154.9 125.5,280.4 280.3,280.4 h 875.1 c 154.8,0 280.4,-125.5 280.4,-280.4 v 0 c 0,-154.8 -125.6,-280.4 -280.4,-280.4"
         style="fill:#333333;fill-opacity:1;fill-rule:nonzero;stroke:none"
         id="path50" />
      <path
         d="m 16564.5,8311.6 c -1,0 -2.1,0 -3.1,0.1 -143,14.6 -181.2,131.2 -181.4,190.7 0,156.2 115.7,257.1 294.7,257.1 h 842.5 c 16.6,0 30,-13.4 30,-30 0,-16.6 -13.4,-30 -30,-30 h -842.5 c -113.5,0 -234.7,-51.7 -234.7,-197 0.2,-11.9 5.2,-118.6 127.5,-131.1 16.5,-1.7 28.5,-16.4 26.8,-32.9 -1.6,-15.4 -14.6,-26.9 -29.8,-26.9"
         style="fill:#ffffff;fill-opacity:1;fill-rule:nonzero;stroke:none"
         id="path52" />
      <path
         d="m 19159.3,8311.6 c -1,0 -2,0 -3,0.1 -143.1,14.6 -181.2,131.2 -181.4,190.7 0,156.2 115.6,257.1 294.7,257.1 h 842.5 c 16.6,0 30,-13.4 30,-30 0,-16.6 -13.4,-30 -30,-30 h -842.5 c -113.5,0 -234.7,-51.7 -234.7,-197 0.1,-11.9 5.1,-118.6 127.5,-131.1 16.4,-1.7 28.4,-16.4 26.8,-32.9 -1.6,-15.4 -14.7,-26.9 -29.9,-26.9"
         style="fill:#ffffff;fill-opacity:1;fill-rule:nonzero;stroke:none"
         id="path54" />
      <path
         d="m 23797.9,7467.5 h -1651.5 c -170.3,0 -308.5,138.1 -308.5,308.4 v 1600.5 c 0,170.4 138.2,308.5 308.5,308.5 h 1651.5 c 170.4,0 308.5,-138.1 308.5,-308.5 V 7775.9 c 0,-170.3 -138.1,-308.4 -308.5,-308.4"
         style="fill:#ffffff;fill-opacity:1;fill-rule:nonzero;stroke:none"
         id="path56" />
      <path
         d="m 23843,8576.2 c 0,-481 -389.9,-870.8 -870.8,-870.8 -481,0 -870.9,389.8 -870.9,870.8 0,480.9 389.9,870.8 870.9,870.8 480.9,0 870.8,-389.9 870.8,-870.8"
         style="fill:#ed1c24;fill-opacity:1;fill-rule:nonzero;stroke:none"
         id="path58" />
      <path
         d="m 23843,8576.2 c 0,-481 -389.9,-870.8 -870.8,-870.8 -481,0 -870.9,389.8 -870.9,870.8 0,480.9 389.9,870.8 870.9,870.8 480.9,0 870.8,-389.9 870.8,-870.8 z"
         style="fill:none;stroke:#333333;stroke-width:100;stroke-linecap:butt;stroke-linejoin:miter;stroke-miterlimit:10;stroke-dasharray:none;stroke-opacity:1"
         id="path60" />
      <path
         d="m 26321.2,7463.2 h -1651.5 c -170.3,0 -308.4,138.1 -308.4,308.5 v 1600.5 c 0,170.3 138.1,308.5 308.4,308.5 h 1651.5 c 170.4,0 308.5,-138.2 308.5,-308.5 V 7771.7 c 0,-170.4 -138.1,-308.5 -308.5,-308.5"
         style="fill:#ffffff;fill-opacity:1;fill-rule:nonzero;stroke:none"
         id="path62" />
      <path
         d="m 26366.3,8571.9 c 0,-480.9 -389.9,-870.8 -870.8,-870.8 -481,0 -870.9,389.9 -870.9,870.8 0,481 389.9,870.9 870.9,870.9 480.9,0 870.8,-389.9 870.8,-870.9"
         style="fill:#ed1c24;fill-opacity:1;fill-rule:nonzero;stroke:none"
         id="path64" />
      <path
         d="m 26366.3,8571.9 c 0,-480.9 -389.9,-870.8 -870.8,-870.8 -481,0 -870.9,389.9 -870.9,870.8 0,481 389.9,870.9 870.9,870.9 480.9,0 870.8,-389.9 870.8,-870.9 z"
         style="fill:none;stroke:#333333;stroke-width:100;stroke-linecap:butt;stroke-linejoin:miter;stroke-miterlimit:10;stroke-dasharray:none;stroke-opacity:1"
         id="path66" />
      <path
         d="m 10882.8,8871.3 v 1196.9 c 0,77.3 62.6,139.9 139.9,139.9 h 3423.7 c 77.3,0 139.9,-62.6 139.9,-139.9 V 8871.3 c 0,-77.2 -62.6,-139.9 -139.9,-139.9 h -3423.7 c -77.3,0 -139.9,62.7 -139.9,139.9"
         style="fill:#ffffff;fill-opacity:1;fill-rule:nonzero;stroke:none"
         id="path68" />
      <path
         d="m 14324.3,10101.2 h -817.6 c -83.9,0 -152,68 -152,151.9 v 817.7 c 0,83.9 -68,151.9 -151.9,151.9 h -953.5 c -83.9,0 -152,-68 -152,-151.9 v -817.7 c 0,-83.9 -68,-151.9 -151.9,-151.9 h -817.6 c -83.9,0 -151.9,-68 -151.9,-151.9 v -953.6 c 0,-83.9 68,-151.9 151.9,-151.9 h 817.6 c 83.9,0 151.9,-68 151.9,-151.9 v -817.6 c 0,-83.9 68.1,-152 152,-152 h 953.5 c 83.9,0 151.9,68.1 151.9,152 v 817.6 c 0,83.9 68.1,151.9 152,151.9 h 817.6 c 83.9,0 151.9,68 151.9,151.9 v 953.6 c 0,83.9 -68,151.9 -151.9,151.9"
         style="fill:#333333;fill-opacity:1;fill-rule:nonzero;stroke:none"
         id="path70" />
      <path
         d="m 11091.2,8907.2 v 930.7 c 0,81.9 65.9,148.2 147.2,148 l 792.5,-1.7 c 81.4,-0.2 147.3,66 147.3,147.9 v 798.1 c 0,81.9 65.9,148.1 147.2,148 l 924.3,-2.1 c 26.9,0 52,-7.5 73.7,-20.2 -17.5,62.3 -74.2,108.1 -141.6,108.2 l -924.2,2.1 c -81.3,0.1 -147.3,-66.1 -147.3,-148 v -798.1 c 0,-81.9 -65.9,-148.1 -147.2,-148 l -792.5,1.8 c -81.3,0.2 -147.3,-66.1 -147.3,-148 v -930.7 c 0,-54.8 29.7,-102.7 73.6,-128.4 -3.6,12.8 -5.7,26.4 -5.7,40.4"
         style="fill:#a09f9f;fill-opacity:1;fill-rule:nonzero;stroke:none"
         id="path72" />
      <path
         d="m 23705.6,7102 v -124.3 h 69.3 c 26.8,0 47,5.2 60.6,15.6 13.5,10.4 20.3,26.6 20.3,48.7 0,20.6 -6.9,35.8 -20.8,45.5 -13.8,9.7 -35,14.5 -63.3,14.5 z m 0,32.8 h 63.6 c 27.3,0 46.9,4.2 58.9,12.8 11.9,8.6 17.9,23 17.9,43.3 0,18.6 -6.6,32.1 -20,40.3 -13.3,8.3 -34.5,12.4 -63.6,12.4 h -56.8 z M 23667,7277 h 93.8 c 44.1,0 76,-6.6 95.7,-19.7 19.7,-13.2 29.5,-34.1 29.5,-62.5 0,-19.7 -5.5,-36 -16.4,-48.8 -11,-12.8 -27.1,-21.1 -48.1,-24.9 v -2.3 c 50.4,-8.6 75.7,-35.1 75.7,-79.5 0,-29.7 -10.1,-52.9 -30.1,-69.5 -20.1,-16.7 -48.2,-25 -84.2,-25 H 23667 V 7277"
         style="fill:#ff0000;fill-opacity:1;fill-rule:nonzero;stroke:none"
         id="path74" />
      <path
         d="m 26412.4,7085.2 -38.6,103 c -5,13 -10.2,29 -15.5,47.9 -3.3,-14.5 -8.1,-30.5 -14.3,-47.9 l -39.1,-103 z m 53.4,-140.4 -41.4,105.6 h -133.1 l -40.9,-105.6 h -39.1 l 131.3,333.6 h 32.5 l 130.7,-333.6 h -40"
         style="fill:#ff0000;fill-opacity:1;fill-rule:nonzero;stroke:none"
         id="path76" />
      <path
         d="m 22286.2,8494 c 0,409.7 338.2,741.8 755.3,741.8 178.1,0 361.8,-80.6 490.9,-181.8 -138.4,154.1 -341,251.4 -566.7,251.4 -417.2,0 -755.4,-332.1 -755.4,-741.7 0,-234.8 111.1,-444 284.5,-580 -117.4,130.8 -208.6,322.4 -208.6,510.3"
         style="fill:#ffffff;fill-opacity:1;fill-rule:nonzero;stroke:none"
         id="path78" />
      <path
         d="m 24826.2,8484 c 0,409.7 338.2,741.8 755.3,741.8 178.1,0 361.8,-80.6 490.9,-181.8 -138.4,154.1 -341,251.4 -566.7,251.4 -417.2,0 -755.4,-332.1 -755.4,-741.7 0,-234.8 111.1,-444 284.5,-580 -117.4,130.8 -208.6,322.4 -208.6,510.3"
         style="fill:#ffffff;fill-opacity:1;fill-rule:nonzero;stroke:none"
         id="path80" />
    </g>
  </g>
</svg>
